  0
SECTION
  2
HEADER
  9
$ACADVER
  1
AC1018
  9
$ACADMAINTVER
 70
    77
  9
$DWGCODEPAGE
  3
ANSI_936
  9
$INSBASE
 10
0.0
 20
0.0
 30
0.0
  9
$EXTMIN
 10
379.535
 20
184.417
 30
0.0
  9
$EXTMAX
 10
988.013
 20
398.427
 30
0.0
  9
$LIMMIN
 10
0.0
 20
0.0
  9
$LIMMAX
 10
420.0
 20
297.0
  9
$ORTHOMODE
 70
     0
  9
$REGENMODE
 70
     1
  9
$FILLMODE
 70
     1
  9
$QTEXTMODE
 70
     0
  9
$MIRRTEXT
 70
     0
  9
$LTSCALE
 40
1.0
  9
$ATTMODE
 70
     1
  9
$TEXTSIZE
 40
2.5
  9
$TRACEWID
 40
1.0
  9
$TEXTSTYLE
  7
STANDARD
  9
$CLAYER
  8
0
  9
$CELTYPE
  6
ByLayer
  9
$CECOLOR
 62
   256
  9
$CELTSCALE
 40
1.0
  9
$DISPSILH
 70
     0
  9
$DIMSCALE
 40
1.0
  9
$DIMASZ
 40
2.5
  9
$DIMEXO
 40
0.625
  9
$DIMDLI
 40
3.75
  9
$DIMRND
 40
0.0
  9
$DIMDLE
 40
0.0
  9
$DIMEXE
 40
1.25
  9
$DIMTP
 40
0.0
  9
$DIMTM
 40
0.0
  9
$DIMTXT
 40
2.5
  9
$DIMCEN
 40
2.5
  9
$DIMTSZ
 40
0.0
  9
$DIMTOL
 70
     0
  9
$DIMLIM
 70
     0
  9
$DIMTIH
 70
     0
  9
$DIMTOH
 70
     0
  9
$DIMSE1
 70
     0
  9
$DIMSE2
 70
     0
  9
$DIMTAD
 70
     1
  9
$DIMZIN
 70
     8
  9
$DIMBLK
  1

  9
$DIMASO
 70
     1
  9
$DIMSHO
 70
     1
  9
$DIMPOST
  1

  9
$DIMAPOST
  1

  9
$DIMALT
 70
     0
  9
$DIMALTD
 70
     3
  9
$DIMALTF
 40
0.03937007874016
  9
$DIMLFAC
 40
1.0
  9
$DIMTOFL
 70
     1
  9
$DIMTVP
 40
0.0
  9
$DIMTIX
 70
     0
  9
$DIMSOXD
 70
     0
  9
$DIMSAH
 70
     0
  9
$DIMBLK1
  1

  9
$DIMBLK2
  1

  9
$DIMSTYLE
  2
ISO-25
  9
$DIMCLRD
 70
     0
  9
$DIMCLRE
 70
     0
  9
$DIMCLRT
 70
     0
  9
$DIMTFAC
 40
1.0
  9
$DIMGAP
 40
0.625
  9
$DIMJUST
 70
     0
  9
$DIMSD1
 70
     0
  9
$DIMSD2
 70
     0
  9
$DIMTOLJ
 70
     1
  9
$DIMTZIN
 70
     0
  9
$DIMALTZ
 70
     0
  9
$DIMALTTZ
 70
     0
  9
$DIMUPT
 70
     0
  9
$DIMDEC
 70
     4
  9
$DIMTDEC
 70
     4
  9
$DIMALTU
 70
     2
  9
$DIMALTTD
 70
     2
  9
$DIMTXSTY
  7
STANDARD
  9
$DIMAUNIT
 70
     0
  9
$DIMADEC
 70
     0
  9
$DIMALTRND
 40
0.0
  9
$DIMAZIN
 70
     0
  9
$DIMDSEP
 70
    46
  9
$DIMATFIT
 70
     3
  9
$DIMFRAC
 70
     0
  9
$DIMLDRBLK
  1

  9
$DIMLUNIT
 70
     2
  9
$DIMLWD
 70
    -2
  9
$DIMLWE
 70
    -2
  9
$DIMTMOVE
 70
     0
  9
$LUNITS
 70
     2
  9
$LUPREC
 70
     4
  9
$SKETCHINC
 40
1.0
  9
$FILLETRAD
 40
0.0
  9
$AUNITS
 70
     0
  9
$AUPREC
 70
     0
  9
$MENU
  1
.
  9
$ELEVATION
 40
0.0
  9
$PELEVATION
 40
0.0
  9
$THICKNESS
 40
0.0
  9
$LIMCHECK
 70
     0
  9
$CHAMFERA
 40
0.0
  9
$CHAMFERB
 40
0.0
  9
$CHAMFERC
 40
0.0
  9
$CHAMFERD
 40
0.0
  9
$SKPOLY
 70
     0
  9
$TDCREATE
 40
2456997.676706910
  9
$TDUCREATE
 40
2456997.343373576
  9
$TDUPDATE
 40
2456997.680113438
  9
$TDUUPDATE
 40
2456997.346780104
  9
$TDINDWG
 40
0.0010312963
  9
$TDUSRTIMER
 40
0.0010311806
  9
$USRTIMER
 70
     1
  9
$ANGBASE
 50
0.0
  9
$ANGDIR
 70
     0
  9
$PDMODE
 70
     0
  9
$PDSIZE
 40
0.0
  9
$PLINEWID
 40
0.0
  9
$SPLFRAME
 70
     0
  9
$SPLINETYPE
 70
     6
  9
$SPLINESEGS
 70
     8
  9
$HANDSEED
  5
2410
  9
$SURFTAB1
 70
     6
  9
$SURFTAB2
 70
     6
  9
$SURFTYPE
 70
     6
  9
$SURFU
 70
     6
  9
$SURFV
 70
     6
  9
$UCSBASE
  2

  9
$UCSNAME
  2

  9
$UCSORG
 10
0.0
 20
0.0
 30
0.0
  9
$UCSXDIR
 10
1.0
 20
0.0
 30
0.0
  9
$UCSYDIR
 10
0.0
 20
1.0
 30
0.0
  9
$UCSORTHOREF
  2

  9
$UCSORTHOVIEW
 70
     0
  9
$UCSORGTOP
 10
0.0
 20
0.0
 30
0.0
  9
$UCSORGBOTTOM
 10
0.0
 20
0.0
 30
0.0
  9
$UCSORGLEFT
 10
0.0
 20
0.0
 30
0.0
  9
$UCSORGRIGHT
 10
0.0
 20
0.0
 30
0.0
  9
$UCSORGFRONT
 10
0.0
 20
0.0
 30
0.0
  9
$UCSORGBACK
 10
0.0
 20
0.0
 30
0.0
  9
$PUCSBASE
  2

  9
$PUCSNAME
  2

  9
$PUCSORG
 10
0.0
 20
0.0
 30
0.0
  9
$PUCSXDIR
 10
1.0
 20
0.0
 30
0.0
  9
$PUCSYDIR
 10
0.0
 20
1.0
 30
0.0
  9
$PUCSORTHOREF
  2

  9
$PUCSORTHOVIEW
 70
     0
  9
$PUCSORGTOP
 10
0.0
 20
0.0
 30
0.0
  9
$PUCSORGBOTTOM
 10
0.0
 20
0.0
 30
0.0
  9
$PUCSORGLEFT
 10
0.0
 20
0.0
 30
0.0
  9
$PUCSORGRIGHT
 10
0.0
 20
0.0
 30
0.0
  9
$PUCSORGFRONT
 10
0.0
 20
0.0
 30
0.0
  9
$PUCSORGBACK
 10
0.0
 20
0.0
 30
0.0
  9
$USERI1
 70
     0
  9
$USERI2
 70
     0
  9
$USERI3
 70
     0
  9
$USERI4
 70
     0
  9
$USERI5
 70
     0
  9
$USERR1
 40
0.0
  9
$USERR2
 40
0.0
  9
$USERR3
 40
0.0
  9
$USERR4
 40
0.0
  9
$USERR5
 40
0.0
  9
$WORLDVIEW
 70
     1
  9
$SHADEDGE
 70
     3
  9
$SHADEDIF
 70
    70
  9
$TILEMODE
 70
     1
  9
$MAXACTVP
 70
    64
  9
$PINSBASE
 10
0.0
 20
0.0
 30
0.0
  9
$PLIMCHECK
 70
     0
  9
$PEXTMIN
 10
0.0
 20
0.0
 30
0.0
  9
$PEXTMAX
 10
0.0
 20
0.0
 30
0.0
  9
$PLIMMIN
 10
0.0
 20
0.0
  9
$PLIMMAX
 10
12.0
 20
9.0
  9
$UNITMODE
 70
     0
  9
$VISRETAIN
 70
     1
  9
$PLINEGEN
 70
     0
  9
$PSLTSCALE
 70
     1
  9
$TREEDEPTH
 70
  3020
  9
$CMLSTYLE
  2
Standard
  9
$CMLJUST
 70
     0
  9
$CMLSCALE
 40
1.0
  9
$PROXYGRAPHICS
 70
     1
  9
$MEASUREMENT
 70
     1
  9
$CELWEIGHT
370
    -1
  9
$ENDCAPS
280
     0
  9
$JOINSTYLE
280
     0
  9
$LWDISPLAY
290
     0
  9
$INSUNITS
 70
     0
  9
$HYPERLINKBASE
  1

  9
$STYLESHEET
  1

  9
$XEDIT
290
     1
  9
$CEPSNTYPE
380
     0
  9
$PSTYLEMODE
290
     1
  9
$FINGERPRINTGUID
  2
{1F2D6530-6BF2-4D5E-922F-A9C54F637010}
  9
$VERSIONGUID
  2
{15AD9CB5-51D1-451C-B472-5DB36EFAD6AD}
  9
$EXTNAMES
290
     1
  9
$PSVPSCALE
 40
0.0
  9
$OLESTARTUP
290
     0
  9
$SORTENTS
280
   127
  9
$INDEXCTL
280
     0
  9
$HIDETEXT
280
     0
  9
$XCLIPFRAME
290
     0
  9
$HALOGAP
280
     0
  9
$OBSCOLOR
 70
   257
  9
$OBSLTYPE
280
     0
  9
$INTERSECTIONDISPLAY
280
     0
  9
$INTERSECTIONCOLOR
 70
   257
  9
$DIMASSOC
280
     1
  9
$PROJECTNAME
  1

  0
ENDSEC
  0
SECTION
  2
CLASSES
  0
CLASS
  1
ACDBDICTIONARYWDFLT
  2
AcDbDictionaryWithDefault
  3
ObjectDBX Classes
 90
        0
 91
        1
280
     0
281
     0
  0
CLASS
  1
TABLESTYLE
  2
AcDbTableStyle
  3
ObjectDBX Classes
 90
     2047
 91
        1
280
     0
281
     0
  0
CLASS
  1
DICTIONARYVAR
  2
AcDbDictionaryVar
  3
ObjectDBX Classes
 90
        0
 91
        1
280
     0
281
     0
  0
ENDSEC
  0
SECTION
  2
TABLES
  0
TABLE
  2
VPORT
  5
10D
330
0
100
AcDbSymbolTable
 70
     2
  0
VPORT
  5
137
330
10D
100
AcDbSymbolTableRecord
100
AcDbViewportTableRecord
  2
*Active
 70
     0
 10
0.0
 20
0.0
 11
1.0
 21
1.0
 12
683.774
 22
291.422
 13
0.0
 23
0.0
 14
10.0
 24
10.0
 15
10.0
 25
10.0
 16
0.0
 26
0.0
 36
1.0
 17
0.0
 27
0.0
 37
0.0
 40
551.708552688342
 41
2.435135135135135
 42
50.0
 43
0.0
 44
0.0
 50
0.0
 51
0.0
 71
     0
 72
  1000
 73
     1
 74
     3
 75
     0
 76
     0
 77
     0
 78
     0
281
     0
 65
     1
110
0.0
120
0.0
130
0.0
111
1.0
121
0.0
131
0.0
112
0.0
122
1.0
132
0.0
 79
     0
146
0.0
  0
ENDTAB
  0
TABLE
  2
LTYPE
  5
10A
330
0
100
AcDbSymbolTable
 70
     1
  0
LTYPE
  5
118
330
10A
100
AcDbSymbolTableRecord
100
AcDbLinetypeTableRecord
  2
ByBlock
 70
     0
  3

 72
    65
 73
     0
 40
0.0
  0
LTYPE
  5
119
330
10A
100
AcDbSymbolTableRecord
100
AcDbLinetypeTableRecord
  2
ByLayer
 70
     0
  3

 72
    65
 73
     0
 40
0.0
  0
LTYPE
  5
11A
330
10A
100
AcDbSymbolTableRecord
100
AcDbLinetypeTableRecord
  2
CONTINUOUS
 70
     0
  3
Solid line
 72
    65
 73
     0
 40
0.0
  0
ENDTAB
  0
TABLE
  2
LAYER
  5
107
330
0
100
AcDbSymbolTable
 70
     1
  0
LAYER
  5
115
330
107
100
AcDbSymbolTableRecord
100
AcDbLayerTableRecord
  2
0
 70
     0
 62
     7
  6
CONTINUOUS
370
    -3
390
114
  0
ENDTAB
  0
TABLE
  2
STYLE
  5
108
330
0
100
AcDbSymbolTable
 70
     1
  0
STYLE
  5
116
330
108
100
AcDbSymbolTableRecord
100
AcDbTextStyleTableRecord
  2
STANDARD
 70
     0
 40
0.0
 41
1.0
 50
0.0
 71
     0
 42
2.5
  3
txt
  4
gbcbig.shx
  0
ENDTAB
  0
TABLE
  2
VIEW
  5
10B
330
0
100
AcDbSymbolTable
 70
     0
  0
ENDTAB
  0
TABLE
  2
UCS
  5
10C
330
0
100
AcDbSymbolTable
 70
     0
  0
ENDTAB
  0
TABLE
  2
APPID
  5
10E
330
0
100
AcDbSymbolTable
 70
     2
  0
APPID
  5
117
330
10E
100
AcDbSymbolTableRecord
100
AcDbRegAppTableRecord
  2
ACAD
 70
     0
  0
APPID
  5
12C
330
10E
100
AcDbSymbolTableRecord
100
AcDbRegAppTableRecord
  2
ACAD_PSEXT
 70
     0
  0
APPID
  5
112C
330
10E
100
AcDbSymbolTableRecord
100
AcDbRegAppTableRecord
  2
FS_CYPCUT
 70
     0
  0
ENDTAB
  0
TABLE
  2
DIMSTYLE
  5
10F
330
0
100
AcDbSymbolTable
 70
     1
100
AcDbDimStyleTable
 71
     0
  0
DIMSTYLE
105
12D
330
10F
100
AcDbSymbolTableRecord
100
AcDbDimStyleTableRecord
  2
ISO-25
 70
     0
 41
2.5
 42
0.625
 43
3.75
 44
1.25
 73
     0
 74
     0
 77
     1
 78
     8
140
2.5
141
2.5
143
0.03937007874016
147
0.625
171
     3
172
     1
274
     3
279
     2
284
     8
285
     8
286
     8
340
116
  0
ENDTAB
  0
TABLE
  2
BLOCK_RECORD
  5
106
330
0
100
AcDbSymbolTable
 70
     2
  0
BLOCK_RECORD
  5
127
330
106
100
AcDbSymbolTableRecord
100
AcDbBlockTableRecord
  2
*Model_Space
340
12A
  0
BLOCK_RECORD
  5
123
330
106
100
AcDbSymbolTableRecord
100
AcDbBlockTableRecord
  2
*Paper_Space
340
126
  0
BLOCK_RECORD
  5
130
330
106
100
AcDbSymbolTableRecord
100
AcDbBlockTableRecord
  2
$MODEL_SPACE
340
0
  0
BLOCK_RECORD
  5
132
330
106
100
AcDbSymbolTableRecord
100
AcDbBlockTableRecord
  2
$PAPER_SPACE
340
0
  0
ENDTAB
  0
ENDSEC
  0
SECTION
  2
BLOCKS
  0
BLOCK
  5
128
330
127
100
AcDbEntity
  8
0
100
AcDbBlockBegin
  2
*Model_Space
 70
     0
 10
0.0
 20
0.0
 30
0.0
  3
*Model_Space
  1

  0
ENDBLK
  5
129
330
127
100
AcDbEntity
  8
0
100
AcDbBlockEnd
  0
BLOCK
  5
124
330
123
100
AcDbEntity
 67
     1
  8
0
100
AcDbBlockBegin
  2
*Paper_Space
 70
     0
 10
0.0
 20
0.0
 30
0.0
  3
*Paper_Space
  1

  0
ENDBLK
  5
125
330
123
100
AcDbEntity
 67
     1
  8
0
100
AcDbBlockEnd
  0
BLOCK
  5
131
330
130
100
AcDbEntity
  8
0
100
AcDbBlockBegin
  2
$MODEL_SPACE
 70
     0
 10
0.0
 20
0.0
 30
0.0
  3
$MODEL_SPACE
  1

  0
ENDBLK
  5
21
330
130
100
AcDbEntity
  8
0
100
AcDbBlockEnd
  0
BLOCK
  5
133
330
132
100
AcDbEntity
  8
0
100
AcDbBlockBegin
  2
$PAPER_SPACE
 70
     0
 10
0.0
 20
0.0
 30
0.0
  3
$PAPER_SPACE
  1

  0
ENDBLK
  5
D5
330
132
100
AcDbEntity
  8
0
100
AcDbBlockEnd
       0
ENDSEC
       0
SECTION
       2
ENTITIES
       0
SPLINE
       5
2000
     100
AcDbEntity
       8
1
     100
AcDbSpline
      70
0
      71
3
      72
12
      73
8
      74
0
      40
0
      40
0
      40
0
      40
0
      40
0.5
      40
0.5
      40
0.5
      40
0.5
      40
1
      40
1
      40
1
      40
1
      10
597.413
      20
378.603
      30
0
      10
593.242754402749
      20
380.411960927309
      30
0
      10
588.064094777731
      20
380.95476167252
      30
0
      10
584.174481927711
      20
378.164493975904
      30
0
      10
584.174481927711
      20
378.164493975904
      30
0
      10
582.216517621314
      20
376.921278684136
      30
0
      10
580.592980518258
      20
375.237472389025
      30
0
      10
579.156
      20
373.441
      30
0
    1001
FS_CYPCUT
    1000
Channel
    1070
1
    1000
LeadIn
    1002
{
    1070
0
    1040
0
    1040
0
    1040
0
    1040
0
    1070
0
    1040
0
    1070
0
    1002
}
    1000
LeadOut
    1002
{
    1070
0
    1040
0
    1040
0
    1040
0
    1070
0
    1002
}
    1000
IsFill
    1070
0
    1000
PathStart
    1040
0
    1000
ToolCompensation
    1002
{
    1070
0
    1040
0
    1070
0
    1002
}
       0
SPLINE
       5
2001
     100
AcDbEntity
       8
1
     100
AcDbSpline
      70
0
      71
3
      72
20
      73
16
      74
0
      40
0
      40
0
      40
0
      40
0
      40
0.25
      40
0.25
      40
0.25
      40
0.25
      40
0.5
      40
0.5
      40
0.5
      40
0.5
      40
0.75
      40
0.75
      40
0.75
      40
0.75
      40
1
      40
1
      40
1
      40
1
      10
583.717
      20
381.395
      30
0
      10
584.571701377427
      20
383.71414650259
      30
0
      10
585.438542547767
      20
386.083938114811
      30
0
      10
586.212
      20
388.451
      30
0
      10
586.212
      20
388.451
      30
0
      10
586.253333333333
      20
388.454666666666
      30
0
      10
586.294666666667
      20
388.458333333334
      30
0
      10
586.336
      20
388.462
      30
0
      10
586.336
      20
388.462
      30
0
      10
587.722487082079
      20
386.628641915591
      30
0
      10
589.226842216528
      20
384.819753533711
      30
0
      10
590.824
      20
383.127
      30
0
      10
590.824
      20
383.127
      30
0
      10
588.347182756706
      20
383.207829186145
      30
0
      10
585.887095542982
      20
382.556771149726
      30
0
      10
583.717
      20
381.395
      30
0
    1001
FS_CYPCUT
    1000
Channel
    1070
1
    1000
LeadIn
    1002
{
    1070
0
    1040
0
    1040
0
    1040
0
    1040
0
    1070
0
    1040
0
    1070
0
    1002
}
    1000
LeadOut
    1002
{
    1070
0
    1040
0
    1040
0
    1040
0
    1070
0
    1002
}
    1000
IsFill
    1070
0
    1000
PathStart
    1040
0
    1000
ToolCompensation
    1002
{
    1070
0
    1040
0
    1070
0
    1002
}
       0
LWPOLYLINE
       5
2002
     100
AcDbEntity
       8
1
     100
AcDbPolyline
      90
120
      70
0
      10
557.921
      20
338.8
      42
0
      10
555.598
      20
333.93
      42
0
      10
553.476
      20
329.085
      42
0
      10
551.557
      20
324.216
      42
0
      10
550.294
      20
320.677
      42
0
      10
549.205
      20
317.306
      42
0
      10
548.276
      20
314.054
      42
0
      10
547.498
      20
310.901
      42
0
      10
546.871
      20
307.82
      42
0
      10
546.41
      20
304.81
      42
0
      10
546.095
      20
301.876
      42
0
      10
545.935
      20
298.977
      42
0
      10
545.987
      20
294.803
      42
0
      10
546.357
      20
290.573
      42
0
      10
547.066
      20
286.347
      42
0
      10
548.097
      20
282.134
      42
0
      10
549.443
      20
277.969
      42
0
      10
551.091
      20
273.885
      42
0
      10
553.032
      20
269.889
      42
0
      10
555.246
      20
266.033
      42
0
      10
557.015
      20
263.328
      42
0
      10
558.922
      20
260.71
      42
0
      10
560.96
      20
258.169
      42
0
      10
563.123
      20
255.724
      42
0
      10
565.397
      20
253.376
      42
0
      10
567.793
      20
251.116
      42
0
      10
570.298
      20
248.986
      42
0
      10
572.886
      20
246.962
      42
0
      10
575.57
      20
245.073
      42
0
      10
578.317
      20
243.306
      42
0
      10
581.151
      20
241.686
      42
0
      10
584.026
      20
240.202
      42
0
      10
586.96
      20
238.87
      42
0
      10
589.937
      20
237.686
      42
0
      10
592.941
      20
236.667
      42
0
      10
595.972
      20
235.804
      42
0
      10
599.269
      20
235.059
      42
0
      10
602.623
      20
234.482
      42
0
      10
606.058
      20
234.073
      42
0
      10
609.565
      20
233.843
      42
0
      10
613.119
      20
233.791
      42
0
      10
616.739
      20
233.905
      42
0
      10
620.424
      20
234.195
      42
0
      10
624.153
      20
234.651
      42
0
      10
627.935
      20
235.281
      42
0
      10
631.773
      20
236.076
      42
0
      10
635.643
      20
237.044
      42
0
      10
639.566
      20
238.173
      42
0
      10
643.518
      20
239.466
      42
0
      10
647.505
      20
240.931
      42
0
      10
651.499
      20
242.546
      42
0
      10
655.522
      20
244.312
      42
0
      10
664.694
      20
248.667
      42
0
      10
669.05
      20
250.549
      42
0
      10
671.221
      20
251.369
      42
0
      10
673.271
      20
252.037
      42
0
      10
675.213
      20
252.577
      42
0
      10
677.052
      20
252.973
      42
0
      10
680.358
      20
253.418
      42
0
      10
683.775
      20
253.539
      42
0
      10
687.191
      20
253.417
      42
0
      10
690.498
      20
252.973
      42
0
      10
692.337
      20
252.575
      42
0
      10
694.279
      20
252.036
      42
0
      10
696.329
      20
251.369
      42
0
      10
698.499
      20
250.548
      42
0
      10
702.856
      20
248.667
      42
0
      10
712.028
      20
244.311
      42
0
      10
716.049
      20
242.545
      42
0
      10
720.044
      20
240.93
      42
0
      10
724.03
      20
239.465
      42
0
      10
727.982
      20
238.171
      42
0
      10
731.906
      20
237.042
      42
0
      10
735.776
      20
236.073
      42
0
      10
739.614
      20
235.28
      42
0
      10
743.395
      20
234.65
      42
0
      10
747.124
      20
234.192
      42
0
      10
750.809
      20
233.902
      42
0
      10
754.429
      20
233.788
      42
0
      10
757.984
      20
233.841
      42
0
      10
761.49
      20
234.071
      42
0
      10
764.925
      20
234.479
      42
0
      10
768.28
      20
235.055
      42
0
      10
771.576
      20
235.801
      42
0
      10
774.607
      20
236.663
      42
0
      10
777.611
      20
237.682
      42
0
      10
780.588
      20
238.867
      42
0
      10
783.523
      20
240.198
      42
0
      10
786.398
      20
241.682
      42
0
      10
789.231
      20
243.302
      42
0
      10
791.98
      20
245.069
      42
0
      10
794.664
      20
246.958
      42
0
      10
797.25
      20
248.982
      42
0
      10
799.757
      20
251.113
      42
0
      10
802.152
      20
253.371
      42
0
      10
804.426
      20
255.72
      42
0
      10
806.589
      20
258.164
      42
0
      10
808.628
      20
260.706
      42
0
      10
810.535
      20
263.323
      42
0
      10
812.303
      20
266.029
      42
0
      10
814.518
      20
269.883
      42
0
      10
816.458
      20
273.88
      42
0
      10
818.107
      20
277.963
      42
0
      10
819.453
      20
282.129
      42
0
      10
820.486
      20
286.342
      42
0
      10
821.193
      20
290.568
      42
0
      10
821.564
      20
294.797
      42
0
      10
821.616
      20
298.971
      42
0
      10
821.457
      20
301.871
      42
0
      10
821.142
      20
304.806
      42
0
      10
820.68
      20
307.814
      42
0
      10
820.054
      20
310.895
      42
0
      10
819.275
      20
314.049
      42
0
      10
818.346
      20
317.301
      42
0
      10
817.258
      20
320.673
      42
0
      10
815.996
      20
324.212
      42
0
      10
814.077
      20
329.081
      42
0
      10
811.954
      20
333.925
      42
0
      10
809.632
      20
338.796
      42
0
      10
809.548
      20
338.957
      42
0
    1001
FS_CYPCUT
    1000
Channel
    1070
1
    1000
LeadIn
    1002
{
    1070
0
    1040
0
    1040
0
    1040
0
    1040
0
    1070
0
    1040
0
    1070
0
    1002
}
    1000
LeadOut
    1002
{
    1070
0
    1040
0
    1040
0
    1040
0
    1070
0
    1002
}
    1000
IsFill
    1070
0
    1000
PathStart
    1040
0
    1000
ToolCompensation
    1002
{
    1070
0
    1040
0
    1070
0
    1002
}
       0
LWPOLYLINE
       5
2003
     100
AcDbEntity
       8
1
     100
AcDbPolyline
      90
204
      70
1
      10
683.774
      20
256.541
      42
0
      10
687.445
      20
256.41
      42
0
      10
691.015
      20
255.93
      42
0
      10
693.055
      20
255.49
      42
0
      10
695.144
      20
254.91
      42
0
      10
697.325
      20
254.2
      42
0
      10
699.624
      20
253.33
      42
0
      10
704.095
      20
251.4
      42
0
      10
713.274
      20
247.04
      42
0
      10
717.214
      20
245.31
      42
0
      10
721.125
      20
243.73
      42
0
      10
725.015
      20
242.3
      42
0
      10
728.865
      20
241.039
      42
0
      10
732.685
      20
239.938
      42
0
      10
736.445
      20
238.999
      42
0
      10
740.165
      20
238.229
      42
0
      10
743.824
      20
237.618
      42
0
      10
747.424
      20
237.179
      42
0
      10
750.974
      20
236.899
      42
0
      10
754.455
      20
236.789
      42
0
      10
757.864
      20
236.839
      42
0
      10
761.215
      20
237.059
      42
0
      10
764.494
      20
237.448
      42
0
      10
767.694
      20
237.999
      42
0
      10
770.835
      20
238.709
      42
0
      10
773.714
      20
239.528
      42
0
      10
776.574
      20
240.498
      42
0
      10
779.414
      20
241.628
      42
0
      10
782.214
      20
242.899
      42
0
      10
784.964
      20
244.318
      42
0
      10
787.675
      20
245.868
      42
0
      10
790.305
      20
247.558
      42
0
      10
792.874
      20
249.368
      42
0
      10
795.355
      20
251.307
      42
0
      10
797.755
      20
253.348
      42
0
      10
800.045
      20
255.509
      42
0
      10
802.224
      20
257.757
      42
0
      10
804.295
      20
260.098
      42
0
      10
806.245
      20
262.528
      42
0
      10
808.064
      20
265.027
      42
0
      10
809.746
      20
267.598
      42
0
      10
811.866
      20
271.287
      42
0
      10
813.716
      20
275.098
      42
0
      10
815.285
      20
278.988
      42
0
      10
816.565
      20
282.948
      42
0
      10
817.546
      20
286.947
      42
0
      10
818.215
      20
290.948
      42
0
      10
818.565
      20
294.948
      42
0
      10
818.616
      20
298.908
      42
0
      10
818.466
      20
301.627
      42
0
      10
818.165
      20
304.417
      42
0
      10
817.726
      20
307.288
      42
0
      10
817.126
      20
310.237
      42
0
      10
816.376
      20
313.278
      42
0
      10
815.476
      20
316.428
      42
0
      10
814.417
      20
319.708
      42
0
      10
813.186
      20
323.158
      42
0
      10
811.305
      20
327.928
      42
0
      10
809.226
      20
332.678
      42
0
      10
806.946
      20
337.458
      42
0
      10
804.406
      20
342.348
      42
0
      10
801.607
      20
347.348
      42
0
      10
798.446
      20
352.688
      42
0
      10
794.817
      20
358.537
      42
0
      10
790.386
      20
365.427
      42
0
      10
788.407
      20
368.408
      42
0
      10
786.867
      20
370.548
      42
0
      10
785.426
      20
372.348
      42
0
      10
784.037
      20
373.828
      42
0
      10
782.638
      20
375.049
      42
0
      10
781.247
      20
375.979
      42
0
      10
779.858
      20
376.637
      42
0
      10
778.447
      20
377.019
      42
0
      10
777.297
      20
377.138
      42
0
      10
776.058
      20
377.099
      42
0
      10
774.737
      20
376.898
      42
0
      10
773.306
      20
376.538
      42
0
      10
771.808
      20
376.039
      42
0
      10
770.157
      20
375.369
      42
0
      10
766.137
      20
373.398
      42
0
      10
761.307
      20
370.768
      42
0
      10
756.418
      20
367.909
      42
0
      10
751.296
      20
364.729
      42
0
      10
745.146
      20
360.729
      42
0
      10
737.467
      20
355.569
      42
0
      10
731.227
      20
351.16
      42
0
      10
725.676
      20
346.969
      42
0
      10
720.707
      20
342.9
      42
0
      10
716.126
      20
338.8
      42
0
      10
711.996
      20
334.709
      42
0
      10
708.276
      20
330.59
      42
0
      10
704.956
      20
326.419
      42
0
      10
703.146
      20
323.89
      42
0
      10
701.216
      20
321.01
      42
0
      10
694.996
      20
311.14
      42
0
      10
692.545
      20
307.5
      42
0
      10
690.375
      20
304.85
      42
0
      10
689.265
      20
303.73
      42
0
      10
688.186
      20
302.81
      42
0
      10
687.116
      20
302.071
      42
0
      10
686.035
      20
301.5
      42
0
      10
684.936
      20
301.09
      42
0
      10
683.776
      20
300.83
      42
0
      10
682.615
      20
301.09
      42
0
      10
681.515
      20
301.5
      42
0
      10
680.436
      20
302.07
      42
0
      10
679.365
      20
302.81
      42
0
      10
678.286
      20
303.73
      42
0
      10
677.176
      20
304.85
      42
0
      10
675.005
      20
307.501
      42
0
      10
672.555
      20
311.141
      42
0
      10
666.336
      20
321.011
      42
0
      10
664.405
      20
323.89
      42
0
      10
662.596
      20
326.421
      42
0
      10
659.276
      20
330.591
      42
0
      10
655.556
      20
334.71
      42
0
      10
651.426
      20
338.8
      42
0
      10
646.846
      20
342.901
      42
0
      10
641.877
      20
346.971
      42
0
      10
636.327
      20
351.16
      42
0
      10
630.087
      20
355.572
      42
0
      10
622.407
      20
360.731
      42
0
      10
616.257
      20
364.731
      42
0
      10
611.137
      20
367.912
      42
0
      10
606.247
      20
370.772
      42
0
      10
601.417
      20
373.401
      42
0
      10
597.397
      20
375.372
      42
0
      10
595.747
      20
376.042
      42
0
      10
594.247
      20
376.541
      42
0
      10
592.817
      20
376.901
      42
0
      10
591.497
      20
377.101
      42
0
      10
590.257
      20
377.142
      42
0
      10
589.106
      20
377.022
      42
0
      10
587.697
      20
376.641
      42
0
      10
586.306
      20
375.981
      42
0
      10
584.918
      20
375.052
      42
0
      10
583.517
      20
373.833
      42
0
      10
582.127
      20
372.352
      42
0
      10
580.687
      20
370.552
      42
0
      10
579.147
      20
368.413
      42
0
      10
577.167
      20
365.432
      42
0
      10
572.737
      20
358.542
      42
0
      10
569.107
      20
352.692
      42
0
      10
565.946
      20
347.353
      42
0
      10
563.146
      20
342.352
      42
0
      10
560.606
      20
337.462
      42
0
      10
558.327
      20
332.682
      42
0
      10
556.246
      20
327.932
      42
0
      10
554.366
      20
323.163
      42
0
      10
553.135
      20
319.713
      42
0
      10
552.076
      20
316.432
      42
0
      10
551.176
      20
313.283
      42
0
      10
550.426
      20
310.243
      42
0
      10
549.826
      20
307.293
      42
0
      10
549.385
      20
304.423
      42
0
      10
549.085
      20
301.633
      42
0
      10
548.935
      20
298.912
      42
0
      10
548.986
      20
294.953
      42
0
      10
549.335
      20
290.952
      42
0
      10
550.006
      20
286.952
      42
0
      10
550.984
      20
282.952
      42
0
      10
552.266
      20
278.993
      42
0
      10
553.835
      20
275.102
      42
0
      10
555.686
      20
271.292
      42
0
      10
557.805
      20
267.603
      42
0
      10
559.485
      20
265.033
      42
0
      10
561.305
      20
262.532
      42
0
      10
563.255
      20
260.103
      42
0
      10
565.324
      20
257.763
      42
0
      10
567.505
      20
255.513
      42
0
      10
569.795
      20
253.352
      42
0
      10
572.194
      20
251.312
      42
0
      10
574.675
      20
249.371
      42
0
      10
577.245
      20
247.562
      42
0
      10
579.875
      20
245.872
      42
0
      10
582.584
      20
244.322
      42
0
      10
585.334
      20
242.902
      42
0
      10
588.135
      20
241.632
      42
0
      10
590.974
      20
240.502
      42
0
      10
593.835
      20
239.533
      42
0
      10
596.714
      20
238.711
      42
0
      10
599.854
      20
238.002
      42
0
      10
603.054
      20
237.452
      42
0
      10
606.334
      20
237.061
      42
0
      10
609.684
      20
236.842
      42
0
      10
613.095
      20
236.792
      42
0
      10
616.574
      20
236.902
      42
0
      10
620.124
      20
237.181
      42
0
      10
623.724
      20
237.622
      42
0
      10
627.385
      20
238.231
      42
0
      10
631.105
      20
239.002
      42
0
      10
634.865
      20
239.941
      42
0
      10
638.684
      20
241.041
      42
0
      10
642.534
      20
242.301
      42
0
      10
646.425
      20
243.731
      42
0
      10
650.335
      20
245.31
      42
0
      10
654.274
      20
247.041
      42
0
      10
663.455
      20
251.401
      42
0
      10
667.925
      20
253.331
      42
0
      10
670.225
      20
254.2
      42
0
      10
672.405
      20
254.91
      42
0
      10
674.494
      20
255.49
      42
0
      10
676.534
      20
255.93
      42
0
      10
680.105
      20
256.41
      42
0
    1001
FS_CYPCUT
    1000
Channel
    1070
1
    1000
LeadIn
    1002
{
    1070
0
    1040
0
    1040
0
    1040
0
    1040
0
    1070
0
    1040
0
    1070
0
    1002
}
    1000
LeadOut
    1002
{
    1070
0
    1040
0
    1040
0
    1040
0
    1070
0
    1002
}
    1000
IsFill
    1070
0
    1000
PathStart
    1040
0
    1000
ToolCompensation
    1002
{
    1070
0
    1040
0
    1070
0
    1002
}
       0
LWPOLYLINE
       5
2004
     100
AcDbEntity
       8
1
     100
AcDbPolyline
      90
10
      70
0
      10
966.919
      20
199.659
      42
0
      10
957.93
      20
201.76
      42
0
      10
948.946
      20
203.723
      42
0
      10
930.656
      20
207.364
      42
0
      10
912.217
      20
210.71
      42
0
      10
894.074
      20
213.718
      42
0
      10
879.926
      20
215.863
      42
0
      10
865.757
      20
217.823
      42
0
      10
851.568
      20
219.612
      42
0
      10
839.763
      20
220.947
      42
0
    1001
FS_CYPCUT
    1000
Channel
    1070
1
    1000
LeadIn
    1002
{
    1070
0
    1040
0
    1040
0
    1040
0
    1040
0
    1070
0
    1040
0
    1070
0
    1002
}
    1000
LeadOut
    1002
{
    1070
0
    1040
0
    1040
0
    1040
0
    1070
0
    1002
}
    1000
IsFill
    1070
1
    1000
PathStart
    1040
0
    1000
ToolCompensation
    1002
{
    1070
0
    1040
0
    1070
0
    1002
}
       0
LWPOLYLINE
       5
2005
     100
AcDbEntity
       8
1
     100
AcDbPolyline
      90
3
      70
0
      10
824.593
      20
243.851
      42
0
      10
823.985
      20
239.343
      42
0
      10
820.751
      20
239.515
      42
0
    1001
FS_CYPCUT
    1000
Channel
    1070
1
    1000
LeadIn
    1002
{
    1070
0
    1040
0
    1040
0
    1040
0
    1040
0
    1070
0
    1040
0
    1070
0
    1002
}
    1000
LeadOut
    1002
{
    1070
0
    1040
0
    1040
0
    1040
0
    1070
0
    1002
}
    1000
IsFill
    1070
1
    1000
PathStart
    1040
0
    1000
ToolCompensation
    1002
{
    1070
0
    1040
0
    1070
0
    1002
}
       0
LWPOLYLINE
       5
2006
     100
AcDbEntity
       8
1
     100
AcDbPolyline
      90
12
      70
1
      10
827.447
      20
235.089
      42
0
      10
824.133
      20
235.33
      42
0
      10
816.912
      20
235.714
      42
0
      10
811.216
      20
235.916
      42
0
      10
812.436
      20
236.954
      42
0
      10
815.5
      20
239.844
      42
0
      10
818.372
      20
242.808
      42
0
      10
821.122
      20
245.916
      42
0
      10
823.727
      20
249.162
      42
0
      10
826.177
      20
252.527
      42
0
      10
828.506
      20
256.089
      42
0
      10
830.826
      20
260.128
      42
0
    1001
FS_CYPCUT
    1000
Channel
    1070
1
    1000
LeadIn
    1002
{
    1070
0
    1040
0
    1040
0
    1040
0
    1040
0
    1070
0
    1040
0
    1070
0
    1002
}
    1000
LeadOut
    1002
{
    1070
0
    1040
0
    1040
0
    1040
0
    1070
0
    1002
}
    1000
IsFill
    1070
0
    1000
PathStart
    1040
0
    1000
ToolCompensation
    1002
{
    1070
0
    1040
0
    1070
0
    1002
}
       0
LWPOLYLINE
       5
2007
     100
AcDbEntity
       8
1
     100
AcDbPolyline
      90
26
      70
1
      10
830.908
      20
230.827
      42
0
      10
823.882
      20
231.336
      42
0
      10
816.735
      20
231.717
      42
0
      10
809.59
      20
231.972
      42
0
      10
800.716
      20
232.118
      42
0
      10
799.573
      20
232.119
      42
0
      10
800.356
      20
232.621
      42
0
      10
803.608
      20
234.912
      42
0
      10
806.733
      20
237.356
      42
0
      10
809.767
      20
239.934
      42
0
      10
812.69
      20
242.691
      42
0
      10
815.436
      20
245.525
      42
0
      10
818.063
      20
248.495
      42
0
      10
820.548
      20
251.592
      42
0
      10
822.884
      20
254.799
      42
0
      10
825.094
      20
258.181
      42
0
      10
827.784
      20
262.862
      42
0
      10
830.176
      20
267.789
      42
0
      10
832.217
      20
272.843
      42
0
      10
833.894
      20
278.031
      42
0
      10
835.187
      20
283.313
      42
0
      10
836.085
      20
288.673
      42
0
      10
836.556
      20
294.048
      42
0
      10
836.595
      20
297.189
      42
0
      10
839.255
      20
295.428
      42
0
      10
839.6
      20
295.239
      42
0
    1001
FS_CYPCUT
    1000
Channel
    1070
1
    1000
LeadIn
    1002
{
    1070
0
    1040
0
    1040
0
    1040
0
    1040
0
    1070
0
    1040
0
    1070
0
    1002
}
    1000
LeadOut
    1002
{
    1070
0
    1040
0
    1040
0
    1040
0
    1070
0
    1002
}
    1000
IsFill
    1070
1
    1000
PathStart
    1040
0
    1000
ToolCompensation
    1002
{
    1070
0
    1040
0
    1070
0
    1002
}
       0
LWPOLYLINE
       5
2008
     100
AcDbEntity
       8
1
     100
AcDbPolyline
      90
35
      70
1
      10
834.362
      20
226.506
      42
0
      10
830.691
      20
226.833
      42
0
      10
823.631
      20
227.345
      42
0
      10
816.558
      20
227.722
      42
0
      10
809.486
      20
227.973
      42
0
      10
800.684
      20
228.118
      42
0
      10
790.396
      20
228.118
      42
0
      10
783.207
      20
228.071
      42
0
      10
784.897
      20
228.742
      42
0
      10
788.322
      20
230.295
      42
0
      10
791.655
      20
232.016
      42
0
      10
794.939
      20
233.895
      42
0
      10
798.123
      20
235.94
      42
0
      10
801.223
      20
238.124
      42
0
      10
804.205
      20
240.457
      42
0
      10
807.097
      20
242.915
      42
0
      10
809.88
      20
245.539
      42
0
      10
812.501
      20
248.243
      42
0
      10
815.003
      20
251.074
      42
0
      10
817.37
      20
254.022
      42
0
      10
819.59
      20
257.072
      42
0
      10
821.683
      20
260.274
      42
0
      10
824.246
      20
264.735
      42
0
      10
826.518
      20
269.413
      42
0
      10
828.454
      20
274.208
      42
0
      10
830.043
      20
279.124
      42
0
      10
831.266
      20
284.121
      42
0
      10
832.114
      20
289.177
      42
0
      10
832.557
      20
294.248
      42
0
      10
832.62
      20
299.205
      42
0
      10
832.425
      20
302.761
      42
0
      10
832.174
      20
305.102
      42
0
      10
836.133
      20
302.293
      42
0
      10
841.325
      20
298.856
      42
0
      10
843.931
      20
297.424
      42
0
    1001
FS_CYPCUT
    1000
Channel
    1070
1
    1000
LeadIn
    1002
{
    1070
0
    1040
0
    1040
0
    1040
0
    1040
0
    1070
0
    1040
0
    1070
0
    1002
}
    1000
LeadOut
    1002
{
    1070
0
    1040
0
    1040
0
    1040
0
    1070
0
    1002
}
    1000
IsFill
    1070
0
    1000
PathStart
    1040
0
    1000
ToolCompensation
    1002
{
    1070
0
    1040
0
    1070
0
    1002
}
       0
LWPOLYLINE
       5
2009
     100
AcDbEntity
       8
1
     100
AcDbPolyline
      90
26
      70
1
      10
708.687
      20
233.764
      42
0
      10
704.422
      20
234.295
      42
0
      10
699.035
      20
234.835
      42
0
      10
691.474
      20
235.327
      42
0
      10
683.775
      20
235.515
      42
0
      10
676.074
      20
235.327
      42
0
      10
668.515
      20
234.835
      42
0
      10
663.127
      20
234.296
      42
0
      10
658.862
      20
233.765
      42
0
      10
660.093
      20
234.305
      42
0
      10
669.235
      20
238.647
      42
0
      10
673.178
      20
240.349
      42
0
      10
674.872
      20
240.989
      42
0
      10
676.447
      20
241.503
      42
0
      10
677.844
      20
241.891
      42
0
      10
678.947
      20
242.129
      42
0
      10
681.288
      20
242.444
      42
0
      10
683.774
      20
242.531
      42
0
      10
686.261
      20
242.443
      42
0
      10
688.602
      20
242.128
      42
0
      10
689.704
      20
241.891
      42
0
      10
691.102
      20
241.502
      42
0
      10
692.677
      20
240.99
      42
0
      10
694.371
      20
240.348
      42
0
      10
698.314
      20
238.646
      42
0
      10
707.456
      20
234.304
      42
0
    1001
FS_CYPCUT
    1000
Channel
    1070
1
    1000
LeadIn
    1002
{
    1070
0
    1040
0
    1040
0
    1040
0
    1040
0
    1070
0
    1040
0
    1070
0
    1002
}
    1000
LeadOut
    1002
{
    1070
0
    1040
0
    1040
0
    1040
0
    1070
0
    1002
}
    1000
IsFill
    1070
0
    1000
PathStart
    1040
0
    1000
ToolCompensation
    1002
{
    1070
0
    1040
0
    1070
0
    1002
}
       0
LWPOLYLINE
       5
200A
     100
AcDbEntity
       8
1
     100
AcDbPolyline
      90
3
      70
0
      10
546.797
      20
239.521
      42
0
      10
543.565
      20
239.348
      42
0
      10
542.956
      20
243.855
      42
0
    1001
FS_CYPCUT
    1000
Channel
    1070
1
    1000
LeadIn
    1002
{
    1070
0
    1040
0
    1040
0
    1040
0
    1040
0
    1070
0
    1040
0
    1070
0
    1002
}
    1000
LeadOut
    1002
{
    1070
0
    1040
0
    1040
0
    1040
0
    1070
0
    1002
}
    1000
IsFill
    1070
1
    1000
PathStart
    1040
0
    1000
ToolCompensation
    1002
{
    1070
0
    1040
0
    1070
0
    1002
}
       0
LWPOLYLINE
       5
200B
     100
AcDbEntity
       8
1
     100
AcDbPolyline
      90
12
      70
1
      10
540.101
      20
235.095
      42
0
      10
536.724
      20
260.134
      42
0
      10
539.044
      20
256.094
      42
0
      10
541.374
      20
252.532
      42
0
      10
543.823
      20
249.166
      42
0
      10
546.427
      20
245.922
      42
0
      10
549.177
      20
242.812
      42
0
      10
552.049
      20
239.849
      42
0
      10
555.113
      20
236.958
      42
0
      10
556.332
      20
235.921
      42
0
      10
550.636
      20
235.719
      42
0
      10
543.416
      20
235.334
      42
0
    1001
FS_CYPCUT
    1000
Channel
    1070
1
    1000
LeadIn
    1002
{
    1070
0
    1040
0
    1040
0
    1040
0
    1040
0
    1070
0
    1040
0
    1070
0
    1002
}
    1000
LeadOut
    1002
{
    1070
0
    1040
0
    1040
0
    1040
0
    1070
0
    1002
}
    1000
IsFill
    1070
0
    1000
PathStart
    1040
0
    1000
ToolCompensation
    1002
{
    1070
0
    1040
0
    1070
0
    1002
}
       0
LWPOLYLINE
       5
200C
     100
AcDbEntity
       8
1
     100
AcDbPolyline
      90
26
      70
1
      10
536.641
      20
230.834
      42
0
      10
527.951
      20
295.245
      42
0
      10
528.296
      20
295.435
      42
0
      10
530.956
      20
297.195
      42
0
      10
530.995
      20
294.054
      42
0
      10
531.465
      20
288.678
      42
0
      10
532.363
      20
283.319
      42
0
      10
533.658
      20
278.037
      42
0
      10
535.334
      20
272.849
      42
0
      10
537.374
      20
267.794
      42
0
      10
539.766
      20
262.869
      42
0
      10
542.455
      20
258.187
      42
0
      10
544.666
      20
254.805
      42
0
      10
547.001
      20
251.597
      42
0
      10
549.486
      20
248.5
      42
0
      10
552.113
      20
245.53
      42
0
      10
554.859
      20
242.696
      42
0
      10
557.782
      20
239.94
      42
0
      10
560.815
      20
237.361
      42
0
      10
563.94
      20
234.916
      42
0
      10
567.193
      20
232.627
      42
0
      10
567.976
      20
232.122
      42
0
      10
566.832
      20
232.123
      42
0
      10
557.958
      20
231.976
      42
0
      10
550.813
      20
231.722
      42
0
      10
543.667
      20
231.342
      42
0
    1001
FS_CYPCUT
    1000
Channel
    1070
1
    1000
LeadIn
    1002
{
    1070
0
    1040
0
    1040
0
    1040
0
    1040
0
    1070
0
    1040
0
    1070
0
    1002
}
    1000
LeadOut
    1002
{
    1070
0
    1040
0
    1040
0
    1040
0
    1070
0
    1002
}
    1000
IsFill
    1070
1
    1000
PathStart
    1040
0
    1000
ToolCompensation
    1002
{
    1070
0
    1040
0
    1070
0
    1002
}
       0
LWPOLYLINE
       5
200D
     100
AcDbEntity
       8
1
     100
AcDbPolyline
      90
35
      70
1
      10
533.188
      20
226.512
      42
0
      10
523.619
      20
297.43
      42
0
      10
526.226
      20
298.861
      42
0
      10
531.418
      20
302.3
      42
0
      10
535.379
      20
305.108
      42
0
      10
535.127
      20
302.767
      42
0
      10
534.931
      20
299.211
      42
0
      10
534.993
      20
294.253
      42
0
      10
535.437
      20
289.183
      42
0
      10
536.284
      20
284.127
      42
0
      10
537.508
      20
279.128
      42
0
      10
539.097
      20
274.214
      42
0
      10
541.032
      20
269.418
      42
0
      10
543.304
      20
264.74
      42
0
      10
545.866
      20
260.279
      42
0
      10
547.959
      20
257.077
      42
0
      10
550.18
      20
254.027
      42
0
      10
552.546
      20
251.077
      42
0
      10
555.049
      20
248.249
      42
0
      10
557.67
      20
245.543
      42
0
      10
560.451
      20
242.92
      42
0
      10
563.343
      20
240.461
      42
0
      10
566.326
      20
238.129
      42
0
      10
569.426
      20
235.945
      42
0
      10
572.611
      20
233.899
      42
0
      10
575.894
      20
232.021
      42
0
      10
579.227
      20
230.299
      42
0
      10
582.652
      20
228.746
      42
0
      10
584.342
      20
228.073
      42
0
      10
577.151
      20
228.122
      42
0
      10
566.864
      20
228.122
      42
0
      10
558.062
      20
227.977
      42
0
      10
550.99
      20
227.726
      42
0
      10
543.917
      20
227.351
      42
0
      10
536.857
      20
226.838
      42
0
    1001
FS_CYPCUT
    1000
Channel
    1070
1
    1000
LeadIn
    1002
{
    1070
0
    1040
0
    1040
0
    1040
0
    1040
0
    1070
0
    1040
0
    1070
0
    1002
}
    1000
LeadOut
    1002
{
    1070
0
    1040
0
    1040
0
    1040
0
    1070
0
    1002
}
    1000
IsFill
    1070
0
    1000
PathStart
    1040
0
    1000
ToolCompensation
    1002
{
    1070
0
    1040
0
    1070
0
    1002
}
       0
LWPOLYLINE
       5
200E
     100
AcDbEntity
       8
1
     100
AcDbPolyline
      90
153
      70
1
      10
529.734
      20
222.19
      42
0
      10
519.288
      20
299.614
      42
0
      10
524.155
      20
302.287
      42
0
      10
529.156
      20
305.599
      42
0
      10
533.742
      20
308.851
      42
0
      10
538.198
      20
312.252
      42
0
      10
541.235
      20
314.737
      42
0
      10
540.667
      20
312.438
      42
0
      10
539.978
      20
309.047
      42
0
      10
539.467
      20
305.715
      42
0
      10
539.116
      20
302.443
      42
0
      10
538.932
      20
299.125
      42
0
      10
538.991
      20
294.453
      42
0
      10
539.408
      20
289.689
      42
0
      10
540.205
      20
284.935
      42
0
      10
541.359
      20
280.222
      42
0
      10
542.859
      20
275.58
      42
0
      10
544.69
      20
271.043
      42
0
      10
546.842
      20
266.612
      42
0
      10
549.277
      20
262.372
      42
0
      10
551.253
      20
259.351
      42
0
      10
553.358
      20
256.457
      42
0
      10
555.605
      20
253.657
      42
0
      10
557.984
      20
250.967
      42
0
      10
560.48
      20
248.392
      42
0
      10
563.121
      20
245.901
      42
0
      10
565.874
      20
243.561
      42
0
      10
568.711
      20
241.341
      42
0
      10
571.66
      20
239.264
      42
0
      10
574.686
      20
237.319
      42
0
      10
577.806
      20
235.536
      42
0
      10
580.972
      20
233.901
      42
0
      10
584.218
      20
232.427
      42
0
      10
587.518
      20
231.115
      42
0
      10
590.857
      20
229.982
      42
0
      10
594.241
      20
229.018
      42
0
      10
597.903
      20
228.19
      42
0
      10
601.616
      20
227.552
      42
0
      10
605.415
      20
227.1
      42
0
      10
609.283
      20
226.846
      42
0
      10
613.179
      20
226.789
      42
0
      10
617.126
      20
226.914
      42
0
      10
621.124
      20
227.229
      42
0
      10
625.153
      20
227.721
      42
0
      10
629.221
      20
228.399
      42
0
      10
633.331
      20
229.25
      42
0
      10
637.462
      20
230.282
      42
0
      10
641.624
      20
231.481
      42
0
      10
645.816
      20
232.853
      42
0
      10
650.023
      20
234.399
      42
0
      10
654.218
      20
236.096
      42
0
      10
658.43
      20
237.945
      42
0
      10
667.583
      20
242.291
      42
0
      10
671.677
      20
244.059
      42
0
      10
673.544
      20
244.765
      42
0
      10
675.292
      20
245.334
      42
0
      10
676.887
      20
245.776
      42
0
      10
678.257
      20
246.072
      42
0
      10
680.95
      20
246.434
      42
0
      10
683.775
      20
246.534
      42
0
      10
686.599
      20
246.433
      42
0
      10
689.291
      20
246.072
      42
0
      10
690.662
      20
245.776
      42
0
      10
692.258
      20
245.333
      42
0
      10
694.005
      20
244.764
      42
0
      10
695.871
      20
244.059
      42
0
      10
699.965
      20
242.29
      42
0
      10
709.118
      20
237.943
      42
0
      10
713.33
      20
236.093
      42
0
      10
717.525
      20
234.398
      42
0
      10
721.733
      20
232.851
      42
0
      10
725.925
      20
231.48
      42
0
      10
730.088
      20
230.281
      42
0
      10
734.217
      20
229.248
      42
0
      10
738.328
      20
228.397
      42
0
      10
742.394
      20
227.719
      42
0
      10
746.424
      20
227.226
      42
0
      10
750.423
      20
226.911
      42
0
      10
754.369
      20
226.786
      42
0
      10
758.266
      20
226.843
      42
0
      10
762.132
      20
227.098
      42
0
      10
765.933
      20
227.549
      42
0
      10
769.645
      20
228.187
      42
0
      10
773.308
      20
229.016
      42
0
      10
776.691
      20
229.978
      42
0
      10
780.031
      20
231.111
      42
0
      10
783.33
      20
232.424
      42
0
      10
786.576
      20
233.896
      42
0
      10
789.742
      20
235.532
      42
0
      10
792.863
      20
237.316
      42
0
      10
795.889
      20
239.26
      42
0
      10
798.838
      20
241.337
      42
0
      10
801.676
      20
243.557
      42
0
      10
804.428
      20
245.896
      42
0
      10
807.07
      20
248.388
      42
0
      10
809.565
      20
250.962
      42
0
      10
811.943
      20
253.652
      42
0
      10
814.191
      20
256.452
      42
0
      10
816.297
      20
259.345
      42
0
      10
818.272
      20
262.366
      42
0
      10
820.708
      20
266.607
      42
0
      10
822.86
      20
271.037
      42
0
      10
824.69
      20
275.574
      42
0
      10
826.192
      20
280.216
      42
0
      10
827.346
      20
284.928
      42
0
      10
828.143
      20
289.683
      42
0
      10
828.56
      20
294.448
      42
0
      10
828.619
      20
299.119
      42
0
      10
828.436
      20
302.438
      42
0
      10
828.085
      20
305.71
      42
0
      10
827.573
      20
309.043
      42
0
      10
826.885
      20
312.433
      42
0
      10
826.317
      20
314.731
      42
0
      10
829.354
      20
312.248
      42
0
      10
833.81
      20
308.846
      42
0
      10
838.396
      20
305.593
      42
0
      10
843.396
      20
302.282
      42
0
      10
848.262
      20
299.608
      42
0
      10
837.813
      20
222.173
      42
0
      10
837.379
      20
222.223
      42
0
      10
830.37
      20
222.845
      42
0
      10
823.38
      20
223.353
      42
0
      10
816.381
      20
223.725
      42
0
      10
809.382
      20
223.974
      42
0
      10
800.652
      20
224.118
      42
0
      10
790.411
      20
224.118
      42
0
      10
771.098
      20
223.989
      42
0
      10
759.863
      20
224.106
      42
0
      10
749.522
      20
224.521
      42
0
      10
744.934
      20
224.837
      42
0
      10
740.529
      20
225.247
      42
0
      10
733.775
      20
226.056
      42
0
      10
709.656
      20
229.612
      42
0
      10
703.977
      20
230.319
      42
0
      10
698.704
      20
230.847
      42
0
      10
691.295
      20
231.33
      42
0
      10
683.774
      20
231.514
      42
0
      10
676.253
      20
231.33
      42
0
      10
668.844
      20
230.849
      42
0
      10
663.573
      20
230.32
      42
0
      10
657.893
      20
229.613
      42
0
      10
633.773
      20
226.058
      42
0
      10
627.019
      20
225.249
      42
0
      10
622.614
      20
224.84
      42
0
      10
618.026
      20
224.523
      42
0
      10
607.686
      20
224.109
      42
0
      10
596.451
      20
223.992
      42
0
      10
577.137
      20
224.122
      42
0
      10
566.897
      20
224.122
      42
0
      10
558.167
      20
223.979
      42
0
      10
551.168
      20
223.73
      42
0
      10
544.168
      20
223.357
      42
0
      10
537.179
      20
222.852
      42
0
    1001
FS_CYPCUT
    1000
Channel
    1070
1
    1000
LeadIn
    1002
{
    1070
0
    1040
0
    1040
0
    1040
0
    1040
0
    1070
0
    1040
0
    1070
0
    1002
}
    1000
LeadOut
    1002
{
    1070
0
    1040
0
    1040
0
    1040
0
    1070
0
    1002
}
    1000
IsFill
    1070
1
    1000
PathStart
    1040
0
    1000
ToolCompensation
    1002
{
    1070
0
    1040
0
    1070
0
    1002
}
       0
LWPOLYLINE
       5
200F
     100
AcDbEntity
       8
1
     100
AcDbPolyline
      90
11
      70
0
      10
527.235
      20
220.891
      42
0
      10
515.979
      20
219.619
      42
0
      10
501.791
      20
217.831
      42
0
      10
487.623
      20
215.87
      42
0
      10
473.473
      20
213.727
      42
0
      10
455.331
      20
210.718
      42
0
      10
436.891
      20
207.373
      42
0
      10
418.602
      20
203.733
      42
0
      10
409.617
      20
201.77
      42
0
      10
400.628
      20
199.669
      42
0
      10
400.408
      20
199.613
      42
0
    1001
FS_CYPCUT
    1000
Channel
    1070
1
    1000
LeadIn
    1002
{
    1070
0
    1040
0
    1040
0
    1040
0
    1040
0
    1070
0
    1040
0
    1070
0
    1002
}
    1000
LeadOut
    1002
{
    1070
0
    1040
0
    1040
0
    1040
0
    1070
0
    1002
}
    1000
IsFill
    1070
1
    1000
PathStart
    1040
0
    1000
ToolCompensation
    1002
{
    1070
0
    1040
0
    1070
0
    1002
}
       0
LWPOLYLINE
       5
2010
     100
AcDbEntity
       8
1
     100
AcDbPolyline
      90
278
      70
1
      10
817.697
      20
328.075
      42
0
      10
819.682
      20
326.061
      42
0
      10
823.586
      20
322.381
      42
0
      10
827.633
      20
318.823
      42
0
      10
831.834
      20
315.386
      42
0
      10
836.181
      20
312.068
      42
0
      10
840.657
      20
308.892
      42
0
      10
845.467
      20
305.708
      42
0
      10
852.198
      20
302.01
      42
0
      10
858.804
      20
298.649
      42
0
      10
865.485
      20
295.518
      42
0
      10
872.21
      20
292.622
      42
0
      10
876.973
      20
290.722
      42
0
      10
881.569
      20
289.03
      42
0
      10
886.07
      20
287.508
      42
0
      10
890.497
      20
286.155
      42
0
      10
894.889
      20
284.969
      42
0
      10
899.257
      20
283.94
      42
0
      10
903.602
      20
283.078
      42
0
      10
907.928
      20
282.368
      42
0
      10
912.172
      20
281.828
      42
0
      10
916.395
      20
281.438
      42
0
      10
920.558
      20
281.219
      42
0
      10
924.654
      20
281.154
      42
0
      10
928.68
      20
281.253
      42
0
      10
932.634
      20
281.519
      42
0
      10
936.489
      20
281.956
      42
0
      10
940.249
      20
282.553
      42
0
      10
943.903
      20
283.33
      42
0
      10
947.448
      20
284.276
      42
0
      10
950.868
      20
285.405
      42
0
      10
954.177
      20
286.701
      42
0
      10
957.375
      20
288.197
      42
0
      10
960.412
      20
289.867
      42
0
      10
963.316
      20
291.713
      42
0
      10
964.133
      20
292.318
      42
0
      10
962.729
      20
287.054
      42
0
      10
960.809
      20
278.355
      42
0
      10
959.171
      20
269.293
      42
0
      10
958.308
      20
263.346
      42
0
      10
957.81
      20
258.212
      42
0
      10
957.637
      20
253.433
      42
0
      10
957.845
      20
248.887
      42
0
      10
958.464
      20
244.645
      42
0
      10
958.984
      20
242.424
      42
0
      10
959.607
      20
240.349
      42
0
      10
960.37
      20
238.344
      42
0
      10
961.271
      20
236.38
      42
0
      10
962.325
      20
234.511
      42
0
      10
963.525
      20
232.702
      42
0
      10
965.299
      20
230.5
      42
0
      10
967.333
      20
228.479
      42
0
      10
969.525
      20
226.668
      42
0
      10
972.41
      20
224.694
      42
0
      10
976.627
      20
222.992
      42
0
      10
969.256
      20
195.957
      42
0
      10
966.202
      20
196.745
      42
0
      10
957.268
      20
198.833
      42
0
      10
948.333
      20
200.786
      42
0
      10
930.095
      20
204.417
      42
0
      10
911.703
      20
207.753
      42
0
      10
893.604
      20
210.754
      42
0
      10
879.495
      20
212.894
      42
0
      10
865.364
      20
214.849
      42
0
      10
851.212
      20
216.633
      42
0
      10
836.978
      20
218.242
      42
0
      10
830.048
      20
218.859
      42
0
      10
823.129
      20
219.36
      42
0
      10
816.203
      20
219.73
      42
0
      10
809.277
      20
219.976
      42
0
      10
800.618
      20
220.118
      42
0
      10
790.423
      20
220.119
      42
0
      10
771.09
      20
219.988
      42
0
      10
759.761
      20
220.107
      42
0
      10
749.304
      20
220.527
      42
0
      10
744.61
      20
220.851
      42
0
      10
740.105
      20
221.269
      42
0
      10
733.246
      20
222.09
      42
0
      10
709.116
      20
225.648
      42
0
      10
703.529
      20
226.345
      42
0
      10
698.376
      20
226.861
      42
0
      10
691.117
      20
227.333
      42
0
      10
683.774
      20
227.513
      42
0
      10
676.431
      20
227.333
      42
0
      10
669.173
      20
226.861
      42
0
      10
664.02
      20
226.345
      42
0
      10
658.432
      20
225.649
      42
0
      10
634.303
      20
222.092
      42
0
      10
627.442
      20
221.272
      42
0
      10
622.937
      20
220.852
      42
0
      10
618.244
      20
220.529
      42
0
      10
607.786
      20
220.11
      42
0
      10
596.457
      20
219.992
      42
0
      10
577.125
      20
220.123
      42
0
      10
566.93
      20
220.123
      42
0
      10
558.271
      20
219.98
      42
0
      10
551.345
      20
219.734
      42
0
      10
544.419
      20
219.365
      42
0
      10
537.5
      20
218.864
      42
0
      10
530.57
      20
218.248
      42
0
      10
516.336
      20
216.64
      42
0
      10
502.184
      20
214.856
      42
0
      10
488.053
      20
212.902
      42
0
      10
473.944
      20
210.763
      42
0
      10
455.845
      20
207.761
      42
0
      10
437.452
      20
204.427
      42
0
      10
419.214
      20
200.796
      42
0
      10
410.279
      20
198.844
      42
0
      10
401.345
      20
196.755
      42
0
      10
398.292
      20
195.968
      42
0
      10
390.921
      20
223.004
      42
0
      10
395.137
      20
224.705
      42
0
      10
398.023
      20
226.678
      42
0
      10
400.215
      20
228.49
      42
0
      10
402.251
      20
230.511
      42
0
      10
404.024
      20
232.713
      42
0
      10
405.224
      20
234.521
      42
0
      10
406.279
      20
236.391
      42
0
      10
407.179
      20
238.353
      42
0
      10
407.941
      20
240.359
      42
0
      10
408.564
      20
242.434
      42
0
      10
409.084
      20
244.655
      42
0
      10
409.704
      20
248.898
      42
0
      10
409.912
      20
253.444
      42
0
      10
409.739
      20
258.222
      42
0
      10
409.242
      20
263.356
      42
0
      10
408.379
      20
269.303
      42
0
      10
406.741
      20
278.366
      42
0
      10
404.823
      20
287.066
      42
0
      10
403.419
      20
292.329
      42
0
      10
404.235
      20
291.724
      42
0
      10
407.139
      20
289.876
      42
0
      10
410.176
      20
288.207
      42
0
      10
413.374
      20
286.711
      42
0
      10
416.682
      20
285.415
      42
0
      10
420.102
      20
284.287
      42
0
      10
423.647
      20
283.34
      42
0
      10
427.301
      20
282.564
      42
0
      10
431.062
      20
281.965
      42
0
      10
434.917
      20
281.528
      42
0
      10
438.871
      20
281.262
      42
0
      10
442.897
      20
281.163
      42
0
      10
446.993
      20
281.228
      42
0
      10
451.155
      20
281.446
      42
0
      10
455.379
      20
281.837
      42
0
      10
459.623
      20
282.378
      42
0
      10
463.949
      20
283.088
      42
0
      10
468.293
      20
283.947
      42
0
      10
472.662
      20
284.978
      42
0
      10
477.053
      20
286.163
      42
0
      10
481.481
      20
287.515
      42
0
      10
485.982
      20
289.036
      42
0
      10
490.579
      20
290.73
      42
0
      10
495.342
      20
292.629
      42
0
      10
502.066
      20
295.524
      42
0
      10
508.747
      20
298.656
      42
0
      10
515.353
      20
302.016
      42
0
      10
522.085
      20
305.714
      42
0
      10
526.894
      20
308.899
      42
0
      10
531.371
      20
312.074
      42
0
      10
535.717
      20
315.391
      42
0
      10
539.919
      20
318.829
      42
0
      10
543.967
      20
322.387
      42
0
      10
547.87
      20
326.067
      42
0
      10
549.855
      20
328.081
      42
0
      10
548.748
      20
325.27
      42
0
      10
547.454
      20
321.644
      42
0
      10
546.335
      20
318.18
      42
0
      10
545.377
      20
314.826
      42
0
      10
544.57
      20
311.559
      42
0
      10
543.917
      20
308.345
      42
0
      10
543.434
      20
305.198
      42
0
      10
543.104
      20
302.119
      42
0
      10
542.934
      20
299.04
      42
0
      10
542.989
      20
294.653
      42
0
      10
543.379
      20
290.194
      42
0
      10
544.125
      20
285.741
      42
0
      10
545.209
      20
281.314
      42
0
      10
546.621
      20
276.945
      42
0
      10
548.348
      20
272.666
      42
0
      10
550.379
      20
268.485
      42
0
      10
552.688
      20
264.464
      42
0
      10
554.546
      20
261.624
      42
0
      10
556.538
      20
258.887
      42
0
      10
558.665
      20
256.235
      42
0
      10
560.92
      20
253.685
      42
0
      10
563.29
      20
251.24
      42
0
      10
565.791
      20
248.882
      42
0
      10
568.402
      20
246.661
      42
0
      10
571.097
      20
244.553
      42
0
      10
573.894
      20
242.583
      42
0
      10
576.762
      20
240.741
      42
0
      10
579.717
      20
239.05
      42
0
      10
582.717
      20
237.501
      42
0
      10
585.785
      20
236.11
      42
0
      10
588.9
      20
234.87
      42
0
      10
592.048
      20
233.802
      42
0
      10
595.23
      20
232.895
      42
0
      10
598.684
      20
232.115
      42
0
      10
602.191
      20
231.512
      42
0
      10
605.783
      20
231.085
      42
0
      10
609.443
      20
230.845
      42
0
      10
613.146
      20
230.79
      42
0
      10
616.905
      20
230.908
      42
0
      10
620.724
      20
231.21
      42
0
      10
624.582
      20
231.682
      42
0
      10
628.485
      20
232.331
      42
0
      10
632.441
      20
233.151
      42
0
      10
636.423
      20
234.146
      42
0
      10
640.448
      20
235.304
      42
0
      10
644.504
      20
236.632
      42
0
      10
648.584
      20
238.133
      42
0
      10
652.665
      20
239.782
      42
0
      10
656.769
      20
241.583
      42
0
      10
665.933
      20
245.934
      42
0
      10
670.176
      20
247.768
      42
0
      10
672.215
      20
248.539
      42
0
      10
674.137
      20
249.164
      42
0
      10
675.931
      20
249.662
      42
0
      10
677.568
      20
250.016
      42
0
      10
680.612
      20
250.424
      42
0
      10
683.774
      20
250.536
      42
0
      10
686.938
      20
250.425
      42
0
      10
689.98
      20
250.015
      42
0
      10
691.618
      20
249.662
      42
0
      10
693.413
      20
249.164
      42
0
      10
695.333
      20
248.538
      42
0
      10
697.373
      20
247.767
      42
0
      10
701.618
      20
245.935
      42
0
      10
710.781
      20
241.582
      42
0
      10
714.883
      20
239.78
      42
0
      10
718.965
      20
238.13
      42
0
      10
723.045
      20
236.63
      42
0
      10
727.1
      20
235.303
      42
0
      10
731.127
      20
234.144
      42
0
      10
735.108
      20
233.149
      42
0
      10
739.063
      20
232.329
      42
0
      10
742.966
      20
231.679
      42
0
      10
746.825
      20
231.208
      42
0
      10
750.644
      20
230.907
      42
0
      10
754.404
      20
230.788
      42
0
      10
758.105
      20
230.842
      42
0
      10
761.765
      20
231.082
      42
0
      10
765.356
      20
231.51
      42
0
      10
768.865
      20
232.111
      42
0
      10
772.319
      20
232.893
      42
0
      10
775.501
      20
233.798
      42
0
      10
778.648
      20
234.866
      42
0
      10
781.765
      20
236.106
      42
0
      10
784.831
      20
237.497
      42
0
      10
787.831
      20
239.046
      42
0
      10
790.788
      20
240.737
      42
0
      10
793.655
      20
242.579
      42
0
      10
796.453
      20
244.549
      42
0
      10
799.147
      20
246.657
      42
0
      10
801.758
      20
248.877
      42
0
      10
804.26
      20
251.235
      42
0
      10
806.629
      20
253.681
      42
0
      10
808.884
      20
256.23
      42
0
      10
811.013
      20
258.882
      42
0
      10
813.004
      20
261.618
      42
0
      10
814.861
      20
264.459
      42
0
      10
817.171
      20
268.48
      42
0
      10
819.203
      20
272.662
      42
0
      10
820.929
      20
276.939
      42
0
      10
822.341
      20
281.309
      42
0
      10
823.425
      20
285.736
      42
0
      10
824.172
      20
290.19
      42
0
      10
824.562
      20
294.647
      42
0
      10
824.618
      20
299.035
      42
0
      10
824.448
      20
302.114
      42
0
      10
824.117
      20
305.193
      42
0
      10
823.634
      20
308.341
      42
0
      10
822.981
      20
311.555
      42
0
      10
822.175
      20
314.821
      42
0
      10
821.218
      20
318.175
      42
0
      10
820.097
      20
321.638
      42
0
      10
818.805
      20
325.265
      42
0
    1001
FS_CYPCUT
    1000
Channel
    1070
1
    1000
LeadIn
    1002
{
    1070
0
    1040
0
    1040
0
    1040
0
    1040
0
    1070
0
    1040
0
    1070
0
    1002
}
    1000
LeadOut
    1002
{
    1070
0
    1040
0
    1040
0
    1040
0
    1070
0
    1002
}
    1000
IsFill
    1070
0
    1000
PathStart
    1040
0
    1000
ToolCompensation
    1002
{
    1070
0
    1040
0
    1070
0
    1002
}
       0
LWPOLYLINE
       5
2011
     100
AcDbEntity
       8
1
     100
AcDbPolyline
      90
12
      70
0
      10
787.695
      20
374.316
      42
0
      10
786.122
      20
375.991
      42
0
      10
784.464
      20
377.436
      42
0
      10
782.732
      20
378.595
      42
0
      10
780.9
      20
379.464
      42
0
      10
778.997
      20
379.977
      42
0
      10
777.405
      20
380.143
      42
0
      10
775.783
      20
380.091
      42
0
      10
774.144
      20
379.843
      42
0
      10
772.466
      20
379.42
      42
0
      10
770.767
      20
378.854
      42
0
      10
768.931
      20
378.108
      42
0
    1001
FS_CYPCUT
    1000
Channel
    1070
1
    1000
LeadIn
    1002
{
    1070
0
    1040
0
    1040
0
    1040
0
    1040
0
    1070
0
    1040
0
    1070
0
    1002
}
    1000
LeadOut
    1002
{
    1070
0
    1040
0
    1040
0
    1040
0
    1070
0
    1002
}
    1000
IsFill
    1070
0
    1000
PathStart
    1040
0
    1000
ToolCompensation
    1002
{
    1070
0
    1040
0
    1070
0
    1002
}
       0
LWPOLYLINE
       5
2012
     100
AcDbEntity
       8
1
     100
AcDbPolyline
      90
11
      70
1
      10
783.83
      20
381.394
      42
0
      10
781.941
      20
382.29
      42
0
      10
779.546
      20
382.937
      42
0
      10
777.512
      20
383.148
      42
0
      10
776.73
      20
383.124
      42
0
      10
777.031
      20
383.427
      42
0
      10
779.072
      20
385.739
      42
0
      10
780.976
      20
388.122
      42
0
      10
781.218
      20
388.458
      42
0
      10
781.342
      20
388.447
      42
0
      10
782.251
      20
385.748
      42
0
    1001
FS_CYPCUT
    1000
Channel
    1070
1
    1000
LeadIn
    1002
{
    1070
0
    1040
0
    1040
0
    1040
0
    1040
0
    1070
0
    1040
0
    1070
0
    1002
}
    1000
LeadOut
    1002
{
    1070
0
    1040
0
    1040
0
    1040
0
    1070
0
    1002
}
    1000
IsFill
    1070
0
    1000
PathStart
    1040
0
    1000
ToolCompensation
    1002
{
    1070
0
    1040
0
    1070
0
    1002
}
       0
LWPOLYLINE
       5
2013
     100
AcDbEntity
       8
1
     100
AcDbPolyline
      90
264
      70
1
      10
676.565
      20
224.336
      42
0
      10
669.42
      20
223.871
      42
0
      10
664.355
      20
223.363
      42
0
      10
658.836
      20
222.676
      42
0
      10
634.7
      20
219.118
      42
0
      10
627.759
      20
218.289
      42
0
      10
623.18
      20
217.862
      42
0
      10
618.407
      20
217.533
      42
0
      10
607.862
      20
217.11
      42
0
      10
596.463
      20
216.992
      42
0
      10
577.114
      20
217.122
      42
0
      10
566.954
      20
217.123
      42
0
      10
558.349
      20
216.981
      42
0
      10
551.479
      20
216.737
      42
0
      10
544.607
      20
216.371
      42
0
      10
537.741
      20
215.874
      42
0
      10
530.871
      20
215.264
      42
0
      10
516.692
      20
213.66
      42
0
      10
502.577
      20
211.882
      42
0
      10
488.483
      20
209.932
      42
0
      10
474.413
      20
207.801
      42
0
      10
456.357
      20
204.806
      42
0
      10
438.012
      20
201.479
      42
0
      10
419.827
      20
197.858
      42
0
      10
410.94
      20
195.917
      42
0
      10
402.062
      20
193.843
      42
0
      10
396.176
      20
192.324
      42
0
      10
387.326
      20
224.787
      42
0
      10
393.713
      20
227.365
      42
0
      10
396.218
      20
229.078
      42
0
      10
398.198
      20
230.716
      42
0
      10
400.019
      20
232.523
      42
0
      10
401.601
      20
234.487
      42
0
      10
402.665
      20
236.089
      42
0
      10
403.603
      20
237.757
      42
0
      10
404.411
      20
239.514
      42
0
      10
405.099
      20
241.325
      42
0
      10
405.665
      20
243.208
      42
0
      10
406.135
      20
245.215
      42
0
      10
406.714
      20
249.184
      42
0
      10
406.91
      20
253.458
      42
0
      10
406.744
      20
258.024
      42
0
      10
406.263
      20
262.995
      42
0
      10
405.418
      20
268.82
      42
0
      10
403.799
      20
277.776
      42
0
      10
401.906
      20
286.356
      42
0
      10
399.719
      20
294.561
      42
0
      10
397.478
      20
301.68
      42
0
      10
400.432
      20
298.65
      42
0
      10
403.335
      20
296.124
      42
0
      10
405.935
      20
294.198
      42
0
      10
408.668
      20
292.46
      42
0
      10
411.536
      20
290.884
      42
0
      10
414.558
      20
289.468
      42
0
      10
417.7
      20
288.239
      42
0
      10
420.96
      20
287.163
      42
0
      10
424.347
      20
286.259
      42
0
      10
427.849
      20
285.514
      42
0
      10
431.466
      20
284.938
      42
0
      10
435.186
      20
284.518
      42
0
      10
439.009
      20
284.26
      42
0
      10
442.909
      20
284.164
      42
0
      10
446.89
      20
284.227
      42
0
      10
450.938
      20
284.439
      42
0
      10
455.05
      20
284.819
      42
0
      10
459.19
      20
285.346
      42
0
      10
463.414
      20
286.039
      42
0
      10
467.657
      20
286.88
      42
0
      10
471.927
      20
287.886
      42
0
      10
476.223
      20
289.047
      42
0
      10
480.563
      20
290.371
      42
0
      10
484.984
      20
291.866
      42
0
      10
489.505
      20
293.531
      42
0
      10
494.193
      20
295.401
      42
0
      10
500.836
      20
298.261
      42
0
      10
507.429
      20
301.352
      42
0
      10
513.951
      20
304.669
      42
0
      10
520.532
      20
308.284
      42
0
      10
525.198
      20
311.373
      42
0
      10
529.593
      20
314.49
      42
0
      10
533.857
      20
317.745
      42
0
      10
537.977
      20
321.118
      42
0
      10
541.946
      20
324.605
      42
0
      10
545.772
      20
328.213
      42
0
      10
549.463
      20
331.955
      42
0
      10
552.99
      20
335.795
      42
0
      10
555.712
      20
338.956
      42
0
      10
558.329
      20
342.189
      42
0
      10
560.865
      20
345.495
      42
0
      10
563.297
      20
348.877
      42
0
      10
565.644
      20
352.342
      42
0
      10
567.883
      20
355.872
      42
0
      10
570.039
      20
359.464
      42
0
      10
572.105
      20
363.158
      42
0
      10
574.062
      20
366.905
      42
0
      10
575.932
      20
370.729
      42
0
      10
577.71
      20
374.625
      42
0
      10
579.392
      20
378.592
      42
0
      10
580.98
      20
382.631
      42
0
      10
582.471
      20
386.741
      42
0
      10
583.88
      20
390.926
      42
0
      10
583.983
      20
391.26
      42
0
      10
587.769
      20
391.603
      42
0
      10
588.968
      20
389.942
      42
0
      10
590.781
      20
387.673
      42
0
      10
592.715
      20
385.481
      42
0
      10
595.683
      20
382.491
      42
0
      10
599.047
      20
379.504
      42
0
      10
602.831
      20
376.473
      42
0
      10
607.352
      20
373.144
      42
0
      10
613.63
      20
368.769
      42
0
      10
622.42
      20
362.872
      42
0
      10
630.881
      20
357.175
      42
0
      10
637.097
      20
352.824
      42
0
      10
642.548
      20
348.774
      42
0
      10
647.383
      20
344.926
      42
0
      10
651.227
      20
341.626
      42
0
      10
654.77
      20
338.33
      42
0
      10
658.027
      20
335.045
      42
0
      10
661.031
      20
331.72
      42
0
      10
663.044
      20
329.296
      42
0
      10
664.935
      20
326.854
      42
0
      10
666.678
      20
324.424
      42
0
      10
668.263
      20
322.008
      42
0
      10
671.936
      20
315.891
      42
0
      10
673.866
      20
312.92
      42
0
      10
675.081
      20
311.262
      42
0
      10
676.37
      20
309.79
      42
0
      10
677.922
      20
308.441
      42
0
      10
679.686
      20
307.378
      42
0
      10
681.225
      20
306.776
      42
0
      10
683.776
      20
306.155
      42
0
      10
686.325
      20
306.775
      42
0
      10
687.866
      20
307.377
      42
0
      10
689.63
      20
308.441
      42
0
      10
691.181
      20
309.791
      42
0
      10
692.47
      20
311.262
      42
0
      10
693.685
      20
312.92
      42
0
      10
695.615
      20
315.89
      42
0
      10
699.288
      20
322.008
      42
0
      10
700.874
      20
324.424
      42
0
      10
702.617
      20
326.854
      42
0
      10
704.508
      20
329.296
      42
0
      10
706.522
      20
331.72
      42
0
      10
709.525
      20
335.045
      42
0
      10
712.781
      20
338.329
      42
0
      10
716.325
      20
341.625
      42
0
      10
720.17
      20
344.925
      42
0
      10
725.005
      20
348.772
      42
0
      10
730.456
      20
352.822
      42
0
      10
736.673
      20
357.172
      42
0
      10
745.134
      20
362.87
      42
0
      10
753.924
      20
368.766
      42
0
      10
760.202
      20
373.141
      42
0
      10
764.723
      20
376.47
      42
0
      10
768.506
      20
379.5
      42
0
      10
771.872
      20
382.487
      42
0
      10
774.84
      20
385.477
      42
0
      10
776.773
      20
387.669
      42
0
      10
778.586
      20
389.938
      42
0
      10
779.786
      20
391.6
      42
0
      10
783.572
      20
391.257
      42
0
      10
783.675
      20
390.921
      42
0
      10
785.083
      20
386.738
      42
0
      10
786.574
      20
382.626
      42
0
      10
788.162
      20
378.589
      42
0
      10
789.844
      20
374.621
      42
0
      10
791.621
      20
370.725
      42
0
      10
793.491
      20
366.902
      42
0
      10
795.448
      20
363.154
      42
0
      10
797.515
      20
359.459
      42
0
      10
799.67
      20
355.867
      42
0
      10
801.909
      20
352.337
      42
0
      10
804.256
      20
348.873
      42
0
      10
806.689
      20
345.49
      42
0
      10
809.223
      20
342.184
      42
0
      10
811.841
      20
338.951
      42
0
      10
814.563
      20
335.789
      42
0
      10
818.09
      20
331.95
      42
0
      10
821.78
      20
328.207
      42
0
      10
825.606
      20
324.601
      42
0
      10
829.573
      20
321.111
      42
0
      10
833.695
      20
317.739
      42
0
      10
837.959
      20
314.484
      42
0
      10
842.353
      20
311.367
      42
0
      10
847.02
      20
308.277
      42
0
      10
853.601
      20
304.662
      42
0
      10
860.121
      20
301.345
      42
0
      10
866.715
      20
298.254
      42
0
      10
873.358
      20
295.394
      42
0
      10
878.048
      20
293.524
      42
0
      10
882.568
      20
291.858
      42
0
      10
886.988
      20
290.363
      42
0
      10
891.326
      20
289.039
      42
0
      10
895.624
      20
287.878
      42
0
      10
899.893
      20
286.871
      42
0
      10
904.137
      20
286.031
      42
0
      10
908.361
      20
285.338
      42
0
      10
912.5
      20
284.811
      42
0
      10
916.612
      20
284.43
      42
0
      10
920.66
      20
284.218
      42
0
      10
924.642
      20
284.154
      42
0
      10
928.542
      20
284.25
      42
0
      10
932.365
      20
284.508
      42
0
      10
936.084
      20
284.929
      42
0
      10
939.702
      20
285.504
      42
0
      10
943.204
      20
286.249
      42
0
      10
946.591
      20
287.153
      42
0
      10
949.851
      20
288.229
      42
0
      10
952.993
      20
289.459
      42
0
      10
956.015
      20
290.873
      42
0
      10
958.883
      20
292.449
      42
0
      10
961.616
      20
294.187
      42
0
      10
964.216
      20
296.114
      42
0
      10
967.119
      20
298.64
      42
0
      10
970.074
      20
301.668
      42
0
      10
967.833
      20
294.549
      42
0
      10
965.644
      20
286.346
      42
0
      10
963.751
      20
277.765
      42
0
      10
962.132
      20
268.809
      42
0
      10
961.286
      20
262.985
      42
0
      10
960.806
      20
258.012
      42
0
      10
960.64
      20
253.447
      42
0
      10
960.834
      20
249.172
      42
0
      10
961.415
      20
245.205
      42
0
      10
961.884
      20
243.197
      42
0
      10
962.45
      20
241.314
      42
0
      10
963.138
      20
239.504
      42
0
      10
963.945
      20
237.745
      42
0
      10
964.885
      20
236.079
      42
0
      10
965.949
      20
234.477
      42
0
      10
967.53
      20
232.512
      42
0
      10
969.351
      20
230.705
      42
0
      10
971.331
      20
229.067
      42
0
      10
973.835
      20
227.354
      42
0
      10
980.223
      20
224.776
      42
0
      10
971.372
      20
192.313
      42
0
      10
965.486
      20
193.831
      42
0
      10
956.606
      20
195.908
      42
0
      10
947.72
      20
197.85
      42
0
      10
929.535
      20
201.47
      42
0
      10
911.19
      20
204.798
      42
0
      10
893.134
      20
207.792
      42
0
      10
879.064
      20
209.924
      42
0
      10
864.97
      20
211.876
      42
0
      10
850.856
      20
213.655
      42
0
      10
836.676
      20
215.257
      42
0
      10
829.807
      20
215.867
      42
0
      10
822.94
      20
216.366
      42
0
      10
816.07
      20
216.731
      42
0
      10
809.199
      20
216.976
      42
0
      10
800.593
      20
217.118
      42
0
      10
790.434
      20
217.118
      42
0
      10
771.085
      20
216.988
      42
0
      10
759.686
      20
217.108
      42
0
      10
749.14
      20
217.53
      42
0
      10
744.368
      20
217.86
      42
0
      10
739.789
      20
218.286
      42
0
      10
732.848
      20
219.116
      42
0
      10
708.713
      20
222.675
      42
0
      10
703.194
      20
223.362
      42
0
      10
698.128
      20
223.87
      42
0
      10
690.982
      20
224.335
      42
0
      10
683.775
      20
224.512
      42
0
    1001
FS_CYPCUT
    1000
Channel
    1070
1
    1000
LeadIn
    1002
{
    1070
0
    1040
0
    1040
0
    1040
0
    1040
0
    1070
0
    1040
0
    1070
0
    1002
}
    1000
LeadOut
    1002
{
    1070
0
    1040
0
    1040
0
    1040
0
    1070
0
    1002
}
    1000
IsFill
    1070
1
    1000
PathStart
    1040
0
    1000
ToolCompensation
    1002
{
    1070
0
    1040
0
    1070
0
    1002
}
       0
LWPOLYLINE
       5
2014
     100
AcDbEntity
       8
1
     100
AcDbPolyline
      90
272
      70
1
      10
676.7
      20
221.338
      42
0
      10
669.667
      20
220.881
      42
0
      10
664.689
      20
220.382
      42
0
      10
659.24
      20
219.704
      42
0
      10
635.097
      20
216.145
      42
0
      10
628.076
      20
215.305
      42
0
      10
623.422
      20
214.872
      42
0
      10
618.57
      20
214.537
      42
0
      10
607.938
      20
214.111
      42
0
      10
596.468
      20
213.992
      42
0
      10
577.104
      20
214.122
      42
0
      10
566.979
      20
214.123
      42
0
      10
558.426
      20
213.981
      42
0
      10
551.611
      20
213.739
      42
0
      10
544.796
      20
213.377
      42
0
      10
537.983
      20
212.883
      42
0
      10
531.173
      20
212.278
      42
0
      10
517.047
      20
210.682
      42
0
      10
502.969
      20
208.907
      42
0
      10
488.914
      20
206.964
      42
0
      10
474.883
      20
204.837
      42
0
      10
456.871
      20
201.85
      42
0
      10
438.573
      20
198.532
      42
0
      10
420.441
      20
194.922
      42
0
      10
411.602
      20
192.991
      42
0
      10
402.778
      20
190.929
      42
0
      10
394.06
      20
188.68
      42
0
      10
383.73
      20
226.572
      42
0
      10
392.289
      20
230.026
      42
0
      10
394.41
      20
231.477
      42
0
      10
396.181
      20
232.941
      42
0
      10
397.786
      20
234.534
      42
0
      10
399.177
      20
236.261
      42
0
      10
400.104
      20
237.658
      42
0
      10
400.928
      20
239.121
      42
0
      10
401.642
      20
240.675
      42
0
      10
402.257
      20
242.29
      42
0
      10
402.764
      20
243.982
      42
0
      10
403.185
      20
245.776
      42
0
      10
403.725
      20
249.469
      42
0
      10
403.907
      20
253.471
      42
0
      10
403.749
      20
257.824
      42
0
      10
403.284
      20
262.635
      42
0
      10
402.456
      20
268.338
      42
0
      10
400.857
      20
277.186
      42
0
      10
398.991
      20
285.646
      42
0
      10
396.837
      20
293.723
      42
0
      10
394.402
      20
301.459
      42
0
      10
388.975
      20
314.901
      42
0
      10
392.426
      20
316.547
      42
0
      10
399.758
      20
303.638
      42
0
      10
402.494
      20
300.833
      42
0
      10
405.215
      20
298.465
      42
0
      10
407.635
      20
296.671
      42
0
      10
410.197
      20
295.042
      42
0
      10
412.896
      20
293.559
      42
0
      10
415.741
      20
292.226
      42
0
      10
418.718
      20
291.062
      42
0
      10
421.819
      20
290.039
      42
0
      10
425.046
      20
289.177
      42
0
      10
428.397
      20
288.465
      42
0
      10
431.871
      20
287.912
      42
0
      10
435.455
      20
287.507
      42
0
      10
439.148
      20
287.257
      42
0
      10
442.923
      20
287.164
      42
0
      10
446.788
      20
287.226
      42
0
      10
450.722
      20
287.432
      42
0
      10
454.723
      20
287.803
      42
0
      10
458.758
      20
288.315
      42
0
      10
462.88
      20
288.991
      42
0
      10
467.021
      20
289.812
      42
0
      10
471.191
      20
290.795
      42
0
      10
475.394
      20
291.93
      42
0
      10
479.644
      20
293.228
      42
0
      10
483.985
      20
294.695
      42
0
      10
488.43
      20
296.333
      42
0
      10
493.044
      20
298.172
      42
0
      10
499.606
      20
300.997
      42
0
      10
506.113
      20
304.048
      42
0
      10
512.548
      20
307.321
      42
0
      10
518.979
      20
310.854
      42
0
      10
523.502
      20
313.848
      42
0
      10
527.814
      20
316.906
      42
0
      10
531.997
      20
320.1
      42
0
      10
536.037
      20
323.404
      42
0
      10
539.927
      20
326.824
      42
0
      10
543.675
      20
330.358
      42
0
      10
547.289
      20
334.024
      42
0
      10
550.749
      20
337.789
      42
0
      10
553.41
      20
340.879
      42
0
      10
555.974
      20
344.046
      42
0
      10
558.456
      20
347.283
      42
0
      10
560.836
      20
350.595
      42
0
      10
563.136
      20
353.987
      42
0
      10
565.33
      20
357.448
      42
0
      10
567.442
      20
360.969
      42
0
      10
569.465
      20
364.585
      42
0
      10
571.385
      20
368.258
      42
0
      10
573.221
      20
372.01
      42
0
      10
574.964
      20
375.834
      42
0
      10
576.614
      20
379.727
      42
0
      10
578.174
      20
383.692
      42
0
      10
579.64
      20
387.732
      42
0
      10
581.024
      20
391.844
      42
0
      10
581.705
      20
394.066
      42
0
      10
589.254
      20
394.75
      42
0
      10
589.739
      20
393.999
      42
0
      10
591.357
      20
391.757
      42
0
      10
593.078
      20
389.601
      42
0
      10
594.906
      20
387.532
      42
0
      10
597.745
      20
384.671
      42
0
      10
600.982
      20
381.797
      42
0
      10
604.659
      20
378.852
      42
0
      10
609.1
      20
375.583
      42
0
      10
615.323
      20
371.245
      42
0
      10
624.093
      20
365.362
      42
0
      10
632.579
      20
359.648
      42
0
      10
638.851
      20
355.257
      42
0
      10
644.377
      20
351.153
      42
0
      10
649.295
      20
347.239
      42
0
      10
653.226
      20
343.864
      42
0
      10
656.858
      20
340.485
      42
0
      10
660.207
      20
337.108
      42
0
      10
663.298
      20
333.686
      42
0
      10
665.385
      20
331.173
      42
0
      10
667.34
      20
328.647
      42
0
      10
669.153
      20
326.122
      42
0
      10
670.805
      20
323.605
      42
0
      10
674.482
      20
317.48
      42
0
      10
676.337
      20
314.625
      42
0
      10
677.423
      20
313.141
      42
0
      10
678.492
      20
311.92
      42
0
      10
679.693
      20
310.876
      42
0
      10
681.016
      20
310.08
      42
0
      10
682.131
      20
309.643
      42
0
      10
683.776
      20
309.243
      42
0
      10
685.421
      20
309.643
      42
0
      10
686.536
      20
310.078
      42
0
      10
687.858
      20
310.876
      42
0
      10
689.059
      20
311.921
      42
0
      10
690.129
      20
313.141
      42
0
      10
691.215
      20
314.625
      42
0
      10
693.071
      20
317.48
      42
0
      10
696.746
      20
323.603
      42
0
      10
698.4
      20
326.122
      42
0
      10
700.213
      20
328.647
      42
0
      10
702.167
      20
331.173
      42
0
      10
704.254
      20
333.685
      42
0
      10
707.346
      20
337.107
      42
0
      10
710.694
      20
340.485
      42
0
      10
714.325
      20
343.863
      42
0
      10
718.258
      20
347.236
      42
0
      10
723.175
      20
351.15
      42
0
      10
728.701
      20
355.256
      42
0
      10
734.974
      20
359.646
      42
0
      10
743.46
      20
365.359
      42
0
      10
752.231
      20
371.242
      42
0
      10
758.454
      20
375.58
      42
0
      10
762.895
      20
378.849
      42
0
      10
766.571
      20
381.795
      42
0
      10
769.81
      20
384.667
      42
0
      10
772.649
      20
387.528
      42
0
      10
774.476
      20
389.598
      42
0
      10
776.197
      20
391.753
      42
0
      10
777.814
      20
393.994
      42
0
      10
778.302
      20
394.746
      42
0
      10
785.85
      20
394.062
      42
0
      10
786.531
      20
391.84
      42
0
      10
787.915
      20
387.728
      42
0
      10
789.381
      20
383.687
      42
0
      10
790.94
      20
379.722
      42
0
      10
792.591
      20
375.83
      42
0
      10
794.334
      20
372.006
      42
0
      10
796.169
      20
368.254
      42
0
      10
798.087
      20
364.581
      42
0
      10
800.11
      20
360.963
      42
0
      10
802.224
      20
357.442
      42
0
      10
804.417
      20
353.983
      42
0
      10
806.716
      20
350.59
      42
0
      10
809.098
      20
347.279
      42
0
      10
811.579
      20
344.04
      42
0
      10
814.143
      20
340.875
      42
0
      10
816.805
      20
337.783
      42
0
      10
820.263
      20
334.019
      42
0
      10
823.878
      20
330.352
      42
0
      10
827.626
      20
326.818
      42
0
      10
831.515
      20
323.399
      42
0
      10
835.555
      20
320.093
      42
0
      10
839.737
      20
316.901
      42
0
      10
844.049
      20
313.842
      42
0
      10
848.574
      20
310.847
      42
0
      10
855.003
      20
307.315
      42
0
      10
861.438
      20
304.041
      42
0
      10
867.946
      20
300.991
      42
0
      10
874.506
      20
298.165
      42
0
      10
879.121
      20
296.325
      42
0
      10
883.566
      20
294.687
      42
0
      10
887.907
      20
293.219
      42
0
      10
892.156
      20
291.923
      42
0
      10
896.36
      20
290.788
      42
0
      10
900.529
      20
289.804
      42
0
      10
904.671
      20
288.983
      42
0
      10
908.793
      20
288.306
      42
0
      10
912.829
      20
287.793
      42
0
      10
916.829
      20
287.423
      42
0
      10
920.763
      20
287.216
      42
0
      10
924.628
      20
287.155
      42
0
      10
928.404
      20
287.248
      42
0
      10
932.095
      20
287.497
      42
0
      10
935.68
      20
287.902
      42
0
      10
939.154
      20
288.455
      42
0
      10
942.505
      20
289.167
      42
0
      10
945.734
      20
290.029
      42
0
      10
948.832
      20
291.051
      42
0
      10
951.809
      20
292.216
      42
0
      10
954.655
      20
293.549
      42
0
      10
957.355
      20
295.031
      42
0
      10
959.915
      20
296.661
      42
0
      10
962.337
      20
298.454
      42
0
      10
965.057
      20
300.822
      42
0
      10
967.793
      20
303.627
      42
0
      10
975.126
      20
316.535
      42
0
      10
978.578
      20
314.89
      42
0
      10
973.149
      20
301.448
      42
0
      10
970.714
      20
293.713
      42
0
      10
968.56
      20
285.635
      42
0
      10
966.693
      20
277.175
      42
0
      10
965.094
      20
268.327
      42
0
      10
964.266
      20
262.624
      42
0
      10
963.8
      20
257.814
      42
0
      10
963.642
      20
253.461
      42
0
      10
963.825
      20
249.459
      42
0
      10
964.364
      20
245.765
      42
0
      10
964.785
      20
243.97
      42
0
      10
965.292
      20
242.28
      42
0
      10
965.906
      20
240.664
      42
0
      10
966.62
      20
239.11
      42
0
      10
967.445
      20
237.646
      42
0
      10
968.371
      20
236.25
      42
0
      10
969.762
      20
234.524
      42
0
      10
971.367
      20
232.929
      42
0
      10
973.138
      20
231.465
      42
0
      10
975.26
      20
230.015
      42
0
      10
983.818
      20
226.56
      42
0
      10
973.487
      20
188.669
      42
0
      10
964.77
      20
190.918
      42
0
      10
955.944
      20
192.981
      42
0
      10
947.106
      20
194.911
      42
0
      10
928.974
      20
198.523
      42
0
      10
910.677
      20
201.842
      42
0
      10
892.664
      20
204.829
      42
0
      10
878.634
      20
206.955
      42
0
      10
864.578
      20
208.9
      42
0
      10
850.5
      20
210.675
      42
0
      10
836.375
      20
212.272
      42
0
      10
829.566
      20
212.877
      42
0
      10
822.752
      20
213.372
      42
0
      10
815.936
      20
213.734
      42
0
      10
809.122
      20
213.977
      42
0
      10
800.569
      20
214.118
      42
0
      10
790.443
      20
214.118
      42
0
      10
771.08
      20
213.988
      42
0
      10
759.61
      20
214.108
      42
0
      10
748.977
      20
214.535
      42
0
      10
744.127
      20
214.869
      42
0
      10
739.471
      20
215.302
      42
0
      10
732.451
      20
216.143
      42
0
      10
708.309
      20
219.703
      42
0
      10
702.859
      20
220.381
      42
0
      10
697.881
      20
220.88
      42
0
      10
690.849
      20
221.338
      42
0
      10
683.775
      20
221.511
      42
0
    1001
FS_CYPCUT
    1000
Channel
    1070
1
    1000
LeadIn
    1002
{
    1070
0
    1040
0
    1040
0
    1040
0
    1040
0
    1070
0
    1040
0
    1070
0
    1002
}
    1000
LeadOut
    1002
{
    1070
0
    1040
0
    1040
0
    1040
0
    1070
0
    1002
}
    1000
IsFill
    1070
0
    1000
PathStart
    1040
0
    1000
ToolCompensation
    1002
{
    1070
0
    1040
0
    1070
0
    1002
}
       0
LWPOLYLINE
       5
2015
     100
AcDbEntity
       8
5
     100
AcDbPolyline
      90
272
      70
1
      10
676.857
      20
217.841
      42
0
      10
669.955
      20
217.391
      42
0
      10
665.079
      20
216.904
      42
0
      10
659.711
      20
216.236
      42
0
      10
635.56
      20
212.675
      42
0
      10
628.447
      20
211.823
      42
0
      10
623.704
      20
211.383
      42
0
      10
618.761
      20
211.041
      42
0
      10
608.026
      20
210.612
      42
0
      10
596.476
      20
210.492
      42
0
      10
577.092
      20
210.622
      42
0
      10
567.008
      20
210.622
      42
0
      10
558.516
      20
210.483
      42
0
      10
551.766
      20
210.243
      42
0
      10
545.016
      20
209.884
      42
0
      10
538.264
      20
209.395
      42
0
      10
531.523
      20
208.796
      42
0
      10
517.463
      20
207.207
      42
0
      10
503.429
      20
205.437
      42
0
      10
489.415
      20
203.499
      42
0
      10
475.432
      20
201.381
      42
0
      10
457.469
      20
198.402
      42
0
      10
439.226
      20
195.093
      42
0
      10
421.156
      20
191.496
      42
0
      10
412.374
      20
189.578
      42
0
      10
403.613
      20
187.53
      42
0
      10
391.592
      20
184.428
      42
0
      10
379.535
      20
228.654
      42
0
      10
390.627
      20
233.129
      42
0
      10
392.302
      20
234.276
      42
0
      10
393.829
      20
235.536
      42
0
      10
395.182
      20
236.881
      42
0
      10
396.351
      20
238.331
      42
0
      10
397.118
      20
239.486
      42
0
      10
397.809
      20
240.712
      42
0
      10
398.413
      20
242.029
      42
0
      10
398.94
      20
243.417
      42
0
      10
399.382
      20
244.884
      42
0
      10
399.743
      20
246.428
      42
0
      10
400.236
      20
249.804
      42
0
      10
400.404
      20
253.488
      42
0
      10
400.256
      20
257.593
      42
0
      10
399.808
      20
262.216
      42
0
      10
399.002
      20
267.775
      42
0
      10
397.424
      20
276.498
      42
0
      10
395.59
      20
284.817
      42
0
      10
393.475
      20
292.747
      42
0
      10
391.104
      20
300.276
      42
0
      10
384.497
      20
316.645
      42
0
      10
393.861
      20
321.107
      42
0
      10
402.578
      20
305.759
      42
0
      10
404.9
      20
303.379
      42
0
      10
407.409
      20
301.195
      42
0
      10
409.619
      20
299.559
      42
0
      10
411.98
      20
298.056
      42
0
      10
414.482
      20
296.681
      42
0
      10
417.123
      20
295.445
      42
0
      10
419.905
      20
294.355
      42
0
      10
422.818
      20
293.394
      42
0
      10
425.863
      20
292.582
      42
0
      10
429.036
      20
291.907
      42
0
      10
432.343
      20
291.38
      42
0
      10
435.771
      20
290.992
      42
0
      10
439.308
      20
290.755
      42
0
      10
442.937
      20
290.665
      42
0
      10
446.668
      20
290.724
      42
0
      10
450.469
      20
290.924
      42
0
      10
454.341
      20
291.282
      42
0
      10
458.254
      20
291.78
      42
0
      10
462.256
      20
292.436
      42
0
      10
466.279
      20
293.233
      42
0
      10
470.333
      20
294.19
      42
0
      10
474.428
      20
295.295
      42
0
      10
478.573
      20
296.56
      42
0
      10
482.819
      20
297.995
      42
0
      10
487.176
      20
299.601
      42
0
      10
491.704
      20
301.405
      42
0
      10
498.17
      20
304.189
      42
0
      10
504.576
      20
307.193
      42
0
      10
510.912
      20
310.415
      42
0
      10
517.167
      20
313.852
      42
0
      10
521.523
      20
316.735
      42
0
      10
525.739
      20
319.727
      42
0
      10
529.826
      20
322.845
      42
0
      10
533.772
      20
326.074
      42
0
      10
537.569
      20
329.413
      42
0
      10
541.227
      20
332.86
      42
0
      10
544.754
      20
336.437
      42
0
      10
548.132
      20
340.115
      42
0
      10
550.722
      20
343.123
      42
0
      10
553.224
      20
346.212
      42
0
      10
555.645
      20
349.371
      42
0
      10
557.967
      20
352.599
      42
0
      10
560.209
      20
355.906
      42
0
      10
562.351
      20
359.286
      42
0
      10
564.414
      20
362.723
      42
0
      10
566.387
      20
366.25
      42
0
      10
568.261
      20
369.837
      42
0
      10
570.055
      20
373.506
      42
0
      10
571.759
      20
377.244
      42
0
      10
573.374
      20
381.051
      42
0
      10
574.9
      20
384.929
      42
0
      10
576.335
      20
388.887
      42
0
      10
577.691
      20
392.915
      42
0
      10
579.048
      20
397.34
      42
0
      10
591.043
      20
398.427
      42
0
      10
592.63
      20
395.974
      42
0
      10
594.146
      20
393.875
      42
0
      10
595.761
      20
391.853
      42
0
      10
597.462
      20
389.924
      42
0
      10
600.151
      20
387.215
      42
0
      10
603.24
      20
384.475
      42
0
      10
606.792
      20
381.628
      42
0
      10
611.138
      20
378.428
      42
0
      10
617.3
      20
374.134
      42
0
      10
626.045
      20
368.266
      42
0
      10
634.56
      20
362.533
      42
0
      10
640.9
      20
358.097
      42
0
      10
646.511
      20
353.927
      42
0
      10
651.524
      20
349.936
      42
0
      10
655.56
      20
346.474
      42
0
      10
659.294
      20
343
      42
0
      10
662.75
      20
339.515
      42
0
      10
665.944
      20
335.978
      42
0
      10
668.116
      20
333.364
      42
0
      10
670.147
      20
330.739
      42
0
      10
672.039
      20
328.104
      42
0
      10
673.769
      20
325.466
      42
0
      10
677.45
      20
319.335
      42
0
      10
679.218
      20
316.615
      42
0
      10
680.155
      20
315.333
      42
0
      10
680.97
      20
314.405
      42
0
      10
681.761
      20
313.716
      42
0
      10
682.568
      20
313.23
      42
0
      10
683.187
      20
312.988
      42
0
      10
683.776
      20
312.844
      42
0
      10
684.365
      20
312.988
      42
0
      10
684.983
      20
313.23
      42
0
      10
685.79
      20
313.716
      42
0
      10
686.582
      20
314.404
      42
0
      10
687.396
      20
315.333
      42
0
      10
688.334
      20
316.614
      42
0
      10
690.102
      20
319.335
      42
0
      10
693.782
      20
325.465
      42
0
      10
695.514
      20
328.103
      42
0
      10
697.404
      20
330.739
      42
0
      10
699.436
      20
333.362
      42
0
      10
701.609
      20
335.976
      42
0
      10
704.803
      20
339.514
      42
0
      10
708.258
      20
342.999
      42
0
      10
711.994
      20
346.472
      42
0
      10
716.028
      20
349.935
      42
0
      10
721.041
      20
353.926
      42
0
      10
726.654
      20
358.095
      42
0
      10
732.994
      20
362.531
      42
0
      10
741.508
      20
368.265
      42
0
      10
750.255
      20
374.132
      42
0
      10
756.416
      20
378.425
      42
0
      10
760.762
      20
381.625
      42
0
      10
764.315
      20
384.47
      42
0
      10
767.404
      20
387.212
      42
0
      10
770.091
      20
389.92
      42
0
      10
771.794
      20
391.85
      42
0
      10
773.409
      20
393.871
      42
0
      10
774.924
      20
395.971
      42
0
      10
776.512
      20
398.424
      42
0
      10
788.507
      20
397.336
      42
0
      10
789.863
      20
392.911
      42
0
      10
791.22
      20
388.884
      42
0
      10
792.655
      20
384.924
      42
0
      10
794.18
      20
381.047
      42
0
      10
795.795
      20
377.239
      42
0
      10
797.5
      20
373.502
      42
0
      10
799.293
      20
369.833
      42
0
      10
801.166
      20
366.245
      42
0
      10
803.14
      20
362.718
      42
0
      10
805.202
      20
359.28
      42
0
      10
807.345
      20
355.902
      42
0
      10
809.587
      20
352.594
      42
0
      10
811.908
      20
349.366
      42
0
      10
814.329
      20
346.207
      42
0
      10
816.83
      20
343.119
      42
0
      10
819.42
      20
340.11
      42
0
      10
822.798
      20
336.432
      42
0
      10
826.326
      20
332.855
      42
0
      10
829.983
      20
329.407
      42
0
      10
833.78
      20
326.069
      42
0
      10
837.726
      20
322.839
      42
0
      10
841.813
      20
319.719
      42
0
      10
846.028
      20
316.73
      42
0
      10
850.385
      20
313.845
      42
0
      10
856.64
      20
310.408
      42
0
      10
862.976
      20
307.185
      42
0
      10
869.38
      20
304.182
      42
0
      10
875.847
      20
301.398
      42
0
      10
880.375
      20
299.593
      42
0
      10
884.732
      20
297.988
      42
0
      10
888.979
      20
296.552
      42
0
      10
893.124
      20
295.287
      42
0
      10
897.218
      20
294.181
      42
0
      10
901.271
      20
293.225
      42
0
      10
905.294
      20
292.427
      42
0
      10
909.297
      20
291.77
      42
0
      10
913.21
      20
291.273
      42
0
      10
917.082
      20
290.914
      42
0
      10
920.883
      20
290.715
      42
0
      10
924.613
      20
290.656
      42
0
      10
928.243
      20
290.745
      42
0
      10
931.781
      20
290.984
      42
0
      10
935.209
      20
291.371
      42
0
      10
938.515
      20
291.897
      42
0
      10
941.689
      20
292.572
      42
0
      10
944.733
      20
293.384
      42
0
      10
947.646
      20
294.346
      42
0
      10
950.428
      20
295.435
      42
0
      10
953.069
      20
296.672
      42
0
      10
955.57
      20
298.045
      42
0
      10
957.932
      20
299.548
      42
0
      10
960.142
      20
301.185
      42
0
      10
962.652
      20
303.369
      42
0
      10
964.973
      20
305.748
      42
0
      10
973.69
      20
321.096
      42
0
      10
983.056
      20
316.633
      42
0
      10
976.447
      20
300.266
      42
0
      10
974.076
      20
292.735
      42
0
      10
971.96
      20
284.806
      42
0
      10
970.125
      20
276.486
      42
0
      10
968.549
      20
267.765
      42
0
      10
967.741
      20
262.205
      42
0
      10
967.294
      20
257.582
      42
0
      10
967.145
      20
253.477
      42
0
      10
967.312
      20
249.793
      42
0
      10
967.806
      20
246.418
      42
0
      10
968.168
      20
244.874
      42
0
      10
968.608
      20
243.405
      42
0
      10
969.136
      20
242.018
      42
0
      10
969.74
      20
240.702
      42
0
      10
970.43
      20
239.476
      42
0
      10
971.198
      20
238.32
      42
0
      10
972.366
      20
236.87
      42
0
      10
973.72
      20
235.525
      42
0
      10
975.245
      20
234.265
      42
0
      10
976.921
      20
233.118
      42
0
      10
988.013
      20
228.641
      42
0
      10
975.957
      20
184.417
      42
0
      10
963.934
      20
187.519
      42
0
      10
955.172
      20
189.567
      42
0
      10
946.391
      20
191.485
      42
0
      10
928.32
      20
195.084
      42
0
      10
910.078
      20
198.393
      42
0
      10
892.116
      20
201.373
      42
0
      10
878.131
      20
203.492
      42
0
      10
864.117
      20
205.431
      42
0
      10
850.084
      20
207.201
      42
0
      10
836.024
      20
208.79
      42
0
      10
829.283
      20
209.389
      42
0
      10
822.532
      20
209.878
      42
0
      10
815.782
      20
210.238
      42
0
      10
809.031
      20
210.478
      42
0
      10
800.539
      20
210.617
      42
0
      10
790.455
      20
210.618
      42
0
      10
771.073
      20
210.488
      42
0
      10
759.521
      20
210.608
      42
0
      10
748.786
      20
211.039
      42
0
      10
743.844
      20
211.381
      42
0
      10
739.101
      20
211.822
      42
0
      10
731.987
      20
212.673
      42
0
      10
707.837
      20
216.234
      42
0
      10
702.468
      20
216.903
      42
0
      10
697.593
      20
217.391
      42
0
      10
690.691
      20
217.841
      42
0
      10
683.774
      20
218.011
      42
0
    1001
FS_CYPCUT
    1000
Channel
    1070
5
    1000
LeadIn
    1002
{
    1070
0
    1040
0
    1040
0
    1040
0
    1040
0
    1070
0
    1040
0
    1070
0
    1002
}
    1000
LeadOut
    1002
{
    1070
0
    1040
0
    1040
0
    1040
0
    1070
0
    1002
}
    1000
IsFill
    1070
1
    1000
PathStart
    1040
0
    1000
ToolCompensation
    1002
{
    1070
0
    1040
0
    1070
0
    1002
}
       0
ENDSEC
  0
SECTION
  2
OBJECTS
  0
DICTIONARY
  5
111
330
0
100
AcDbDictionary
281
     1
  3
ACAD_COLOR
350
120
  3
ACAD_GROUP
350
112
  3
ACAD_LAYOUT
350
11E
  3
ACAD_MATERIAL
350
11F
  3
ACAD_MLINESTYLE
350
11B
  3
ACAD_PLOTSETTINGS
350
11D
  3
ACAD_PLOTSTYLENAME
350
113
  3
ACAD_TABLESTYLE
350
121
  3
AcDbVariableDictionary
350
135
  0
DICTIONARY
  5
120
102
{ACAD_REACTORS
330
111
102
}
330
111
100
AcDbDictionary
281
     1
  0
DICTIONARY
  5
112
102
{ACAD_REACTORS
330
111
102
}
330
111
100
AcDbDictionary
281
     1
  0
DICTIONARY
  5
11E
102
{ACAD_REACTORS
330
111
102
}
330
111
100
AcDbDictionary
281
     1
  3
Model
350
12A
  3
布局1
350
126
  0
DICTIONARY
  5
11F
102
{ACAD_REACTORS
330
111
102
}
330
111
100
AcDbDictionary
281
     1
  0
DICTIONARY
  5
11B
102
{ACAD_REACTORS
330
111
102
}
330
111
100
AcDbDictionary
281
     1
  3
Standard
350
11C
  0
DICTIONARY
  5
11D
102
{ACAD_REACTORS
330
111
102
}
330
111
100
AcDbDictionary
281
     1
  0
ACDBDICTIONARYWDFLT
  5
113
102
{ACAD_REACTORS
330
111
102
}
330
111
100
AcDbDictionary
281
     1
  3
Normal
350
114
100
AcDbDictionaryWithDefault
340
114
  0
DICTIONARY
  5
121
102
{ACAD_REACTORS
330
111
102
}
330
111
100
AcDbDictionary
281
     1
  3
Standard
350
122
  0
DICTIONARY
  5
135
102
{ACAD_REACTORS
330
111
102
}
330
111
100
AcDbDictionary
281
     1
  3
CTABLESTYLE
350
136
  0
LAYOUT
  5
12A
102
{ACAD_REACTORS
330
11E
102
}
330
11E
100
AcDbPlotSettings
  1

  2
发送至 OneNote 2010
  4

  6

 40
0.0
 41
0.0
 42
0.0
 43
0.0
 44
0.0
 45
0.0
 46
0.0
 47
0.0
 48
0.0
 49
0.0
140
0.0
141
0.0
142
1.0
143
1.0
 70
  1712
 72
     0
 73
     0
 74
     0
  7

 75
     0
147
1.0
 76
     0
 77
     2
 78
   300
148
0.0
149
0.0
100
AcDbLayout
  1
Model
 70
     1
 71
     0
 10
0.0
 20
0.0
 11
12.0
 21
9.0
 12
0.0
 22
0.0
 32
0.0
 14
0.0
 24
0.0
 34
0.0
 15
0.0
 25
0.0
 35
0.0
146
0.0
 13
0.0
 23
0.0
 33
0.0
 16
1.0
 26
0.0
 36
0.0
 17
0.0
 27
1.0
 37
0.0
 76
     0
330
127
  0
LAYOUT
  5
126
102
{ACAD_REACTORS
330
11E
102
}
330
11E
100
AcDbPlotSettings
  1

  2
发送至 OneNote 2010
  4

  6

 40
0.0
 41
0.0
 42
0.0
 43
0.0
 44
0.0
 45
0.0
 46
0.0
 47
0.0
 48
0.0
 49
0.0
140
0.0
141
0.0
142
1.0
143
1.0
 70
   688
 72
     0
 73
     0
 74
     5
  7

 75
    16
147
1.0
 76
     0
 77
     2
 78
   300
148
0.0
149
0.0
100
AcDbLayout
  1
布局1
 70
     1
 71
     1
 10
0.0
 20
0.0
 11
12.0
 21
9.0
 12
0.0
 22
0.0
 32
0.0
 14
0.0
 24
0.0
 34
0.0
 15
0.0
 25
0.0
 35
0.0
146
0.0
 13
0.0
 23
0.0
 33
0.0
 16
1.0
 26
0.0
 36
0.0
 17
0.0
 27
1.0
 37
0.0
 76
     0
330
123
  0
MLINESTYLE
  5
11C
102
{ACAD_REACTORS
330
11B
102
}
330
11B
100
AcDbMlineStyle
  2
STANDARD
 70
     0
  3

 62
   256
 51
90.0
 52
90.0
 71
     2
 49
0.5
 62
   256
  6
BYLAYER
 49
-0.5
 62
   256
  6
BYLAYER
  0
ACDBPLACEHOLDER
  5
114
102
{ACAD_REACTORS
330
113
102
}
330
113
  0
TABLESTYLE
  5
122
102
{ACAD_REACTORS
330
121
102
}
330
121
100
AcDbTableStyle
  3
Standard
 70
     0
 71
     0
 40
0.06
 41
0.06
280
     0
281
     0
  7
STANDARD
140
0.18
170
     2
 62
     0
 63
     7
283
     0
274
    -2
284
     1
 64
     0
275
    -2
285
     1
 65
     0
276
    -2
286
     1
 66
     0
277
    -2
287
     1
 67
     0
278
    -2
288
     1
 68
     0
279
    -2
289
     1
 69
     0
  7
STANDARD
140
0.25
170
     5
 62
     0
 63
     7
283
     0
274
    -2
284
     1
 64
     0
275
    -2
285
     1
 65
     0
276
    -2
286
     1
 66
     0
277
    -2
287
     1
 67
     0
278
    -2
288
     1
 68
     0
279
    -2
289
     1
 69
     0
  7
STANDARD
140
0.18
170
     5
 62
     0
 63
     7
283
     0
274
    -2
284
     1
 64
     0
275
    -2
285
     1
 65
     0
276
    -2
286
     1
 66
     0
277
    -2
287
     1
 67
     0
278
    -2
288
     1
 68
     0
279
    -2
289
     1
 69
     0
  0
DICTIONARYVAR
  5
136
102
{ACAD_REACTORS
330
135
102
}
330
135
100
DictionaryVariables
280
     0
  1
STANDARD
  0
ENDSEC
  0
EOF
